<svg width="334" height="118" viewBox="0 0 334 118" fill="none" xmlns="http://www.w3.org/2000/svg">
<g clip-path="url(#clip0_30_175)">
<rect width="334" height="118" rx="30" fill="#FF796B"/>
<path fill-rule="evenodd" clip-rule="evenodd" d="M334.516 -61.6635C327.755 -54.9191 319.36 -45.6737 316.702 -35.1802C315.871 -31.901 315.6 -28.4986 316.113 -25.0129C315.553 -22.5455 315.316 -20.0106 315.496 -17.4251C315.429 -17.1865 315.365 -16.9472 315.304 -16.7073C314.832 -14.8432 314.541 -12.9393 314.472 -11.0028C314.153 -10.0971 313.873 -9.18081 313.639 -8.25481C313.569 -7.97766 313.502 -7.69964 313.44 -7.42076C307.277 -0.994805 300.58 7.21779 298.258 16.3824C296.927 21.6383 297.033 27.211 299.503 32.9354C301.972 38.6571 306.794 44.5081 314.854 50.338C333.631 63.9195 351.102 64.6009 364.506 65.1236C365.751 65.1721 366.96 65.2193 368.133 65.2753C375.053 65.606 380.594 66.2445 384.45 69.1875C388.286 72.115 390.528 77.3906 390.641 87.1987L391.23 87.2126C391.117 77.3553 388.866 71.8574 384.812 68.763C380.778 65.684 375.033 65.052 368.142 64.7227C366.967 64.6666 365.757 64.6193 364.513 64.5706C351.115 64.0468 333.821 63.3705 315.202 49.904C307.206 44.1198 302.466 38.3467 300.048 32.7435C297.631 27.1429 297.524 21.69 298.831 16.5287C301.038 7.81849 307.27 -0.0502673 313.223 -6.34749L313.217 -6.31736C313.066 -5.98484 312.919 -5.65068 312.777 -5.31491C308.671 -0.207536 305.04 5.61082 303.454 11.8738C302.122 17.1297 302.228 22.7024 304.699 28.4267C307.168 34.1484 311.989 39.9994 320.049 45.8293C338.827 59.4109 356.298 60.0922 369.701 60.615C370.946 60.6635 372.156 60.7107 373.328 60.7667C380.248 61.0973 385.79 61.7358 389.646 64.6788C393.481 67.6064 395.724 72.8819 395.837 82.6901L396.426 82.704C396.312 72.8467 394.061 67.3488 390.007 64.2544C385.973 61.1754 380.229 60.5433 373.337 60.2141C372.163 60.158 370.953 60.1106 369.709 60.062C356.311 59.5381 339.016 58.8619 320.398 45.3954C312.401 39.6112 307.661 33.8381 305.243 28.2349C302.826 22.6343 302.719 17.1814 304.027 12.0201C305.326 6.8944 308.018 2.06012 311.227 -2.33401C309.732 0.396816 308.527 3.25478 307.778 6.21189C306.447 11.4678 306.553 17.0405 309.023 22.7648C311.492 28.4865 316.314 34.3375 324.374 40.1674C343.151 53.749 360.622 54.4303 374.026 54.9531L374.027 54.9531L374.027 54.9531L374.032 54.9533L374.035 54.9534C375.277 55.0019 376.483 55.0489 377.653 55.1048C384.573 55.4354 390.114 56.0739 393.97 59.0169C397.806 61.9445 400.048 67.22 400.161 77.0282L400.75 77.0421C400.637 67.1848 398.386 61.6869 394.332 58.5925C390.298 55.5135 384.553 54.8814 377.662 54.5522C376.487 54.4961 375.277 54.4487 374.033 54.4001C360.635 53.8762 343.341 53.2 324.723 39.7335C316.726 33.9493 311.986 28.1762 309.568 22.573C307.151 16.9724 307.044 11.5195 308.351 6.3582C309.027 3.69017 310.081 1.1011 311.389 -1.38804C311.31 -1.10971 311.234 -0.830471 311.163 -0.550343C309.832 4.70553 309.938 10.2783 312.408 16.0026C314.878 21.7243 319.699 27.5753 327.759 33.4052C346.536 46.9868 364.007 47.6681 377.411 48.1908L377.413 48.1909C378.657 48.2394 379.866 48.2866 381.038 48.3426C387.958 48.6732 393.5 49.3117 397.356 52.2547C401.191 55.1823 403.434 60.4578 403.547 70.2659L404.136 70.2799C404.022 60.4225 401.771 54.9247 397.717 51.8302C393.683 48.7513 387.939 48.1192 381.047 47.7899C379.872 47.7338 378.662 47.6865 377.419 47.6379C364.021 47.114 346.726 46.4378 328.108 32.9713C320.111 27.1871 315.371 21.414 312.953 15.8107C310.536 10.2102 310.429 4.75723 311.737 -0.404034C312.049 -1.63723 312.442 -2.85355 312.904 -4.05095C312.526 -0.0611734 313.062 4.07727 314.884 8.29815C317.353 14.0198 322.174 19.8708 330.234 25.7007C349.012 39.2823 366.483 39.9636 379.887 40.4864C381.131 40.5349 382.341 40.5821 383.513 40.6381C390.434 40.9687 395.975 41.6072 399.831 44.5503C403.666 47.4778 405.909 52.7533 406.022 62.5615L406.611 62.5754C406.497 52.7181 404.246 47.2202 400.192 44.1258C396.158 41.0468 390.414 40.4147 383.522 40.0855C382.348 40.0294 381.138 39.982 379.894 39.9334C366.496 39.4096 349.201 38.7333 330.583 25.2668C322.586 19.4826 317.847 13.7095 315.428 8.10627C313.458 3.54022 313.023 -0.927705 313.638 -5.21945C313.889 -5.60671 314.144 -5.99103 314.405 -6.37233C314.5 -6.48578 314.596 -6.59888 314.691 -6.71159C314.993 -4.55483 315.595 -2.36592 316.549 -0.154374C319.019 5.56731 323.84 11.4183 331.9 17.2482C350.677 30.8298 368.148 31.5111 381.552 32.0339C382.797 32.0824 384.007 32.1296 385.179 32.1856C392.099 32.5162 397.641 33.1547 401.497 36.0977C405.332 39.0253 407.575 44.3008 407.688 54.109L408.277 54.1229C408.163 44.2656 405.912 38.7677 401.858 35.6733C397.824 32.5943 392.08 31.9622 385.188 31.633C384.013 31.5768 382.803 31.5295 381.56 31.4809C368.162 30.957 350.867 30.2808 332.249 16.8143C324.252 11.0301 319.512 5.25697 317.094 -0.346245C316.079 -2.69739 315.472 -5.02251 315.205 -7.31096C315.906 -8.12082 316.613 -8.91048 317.32 -9.67874C317.388 -9.51162 317.458 -9.34437 317.531 -9.17699C320 -3.45531 324.821 2.39571 332.881 8.22558C351.658 21.8072 369.13 22.4885 382.533 23.0112L382.536 23.0113L382.539 23.0114L382.544 23.0116L382.549 23.0118C383.789 23.0602 384.993 23.1072 386.16 23.163C393.08 23.4936 398.622 24.1321 402.478 27.0751C406.313 30.0027 408.556 35.2782 408.669 45.0864L409.258 45.1003C409.144 35.2429 406.893 29.7451 402.839 26.6506C398.805 23.5717 393.061 22.9396 386.169 22.6103C384.995 22.5542 383.784 22.5069 382.541 22.4583C369.143 21.9344 351.848 21.2582 333.23 7.79167C325.233 2.00747 320.493 -3.76565 318.075 -9.36887C317.963 -9.62873 317.856 -9.88828 317.754 -10.1475C318.804 -11.2761 319.85 -12.3569 320.87 -13.3859C323.641 -9.35581 327.684 -5.2851 333.298 -1.22464C352.075 12.357 369.546 13.0383 382.95 13.561C384.194 13.6096 385.404 13.6567 386.576 13.7127C393.497 14.0434 399.038 14.6819 402.894 17.6249C406.729 20.5524 408.972 25.828 409.085 35.6361L409.674 35.65C409.56 25.7927 407.309 20.2948 403.255 17.2004C399.221 14.1214 393.477 13.4894 386.585 13.1601C385.411 13.104 384.201 13.0567 382.957 13.0081C369.559 12.4842 352.264 11.8079 333.646 -1.65856C328.019 -5.72842 324.005 -9.79279 321.278 -13.7964L321.462 -13.9815L321.704 -14.2225L321.268 -14.6095C321.162 -14.5035 321.055 -14.3968 320.948 -14.2895C320.912 -14.3451 320.875 -14.4008 320.839 -14.4564C322.59 -16.4006 324.356 -18.2161 326.028 -19.8844L325.593 -20.2714C323.961 -18.6435 322.233 -16.8698 320.515 -14.9681C320.295 -15.3212 320.086 -15.6738 319.886 -16.0258C322.924 -19.9898 326.328 -23.5687 329.413 -26.6467L328.978 -27.0336C325.951 -24.0143 322.597 -20.4938 319.577 -16.5844C319.251 -17.1866 318.954 -17.7872 318.683 -18.3859C322.399 -24.5081 327.47 -29.9434 331.889 -34.3511L331.453 -34.7381C327.126 -30.4215 322.129 -25.0804 318.396 -19.0433C318.063 -19.8344 317.776 -20.6225 317.532 -21.4072C321.101 -29.7571 327.868 -37.1312 333.554 -42.8037L333.119 -43.1906C327.585 -37.6707 320.957 -30.4754 317.276 -22.2917C317.033 -23.1904 316.846 -24.0844 316.711 -24.9732C316.758 -25.1771 316.807 -25.3806 316.859 -25.5836C319.479 -35.9244 327.772 -45.0791 334.536 -51.8263L334.1 -52.2133C327.528 -45.657 319.411 -36.7372 316.521 -26.6049C316.287 -29.4822 316.582 -32.299 317.275 -35.0339C319.895 -45.3746 328.188 -54.5293 334.952 -61.2765L334.516 -61.6635ZM314.565 -7.74686C314.494 -7.60931 314.425 -7.47146 314.356 -7.33332C314.43 -7.43873 314.504 -7.5439 314.579 -7.64881L314.569 -7.75086L314.565 -7.74686ZM316.271 -9.92485C316.483 -10.1987 316.697 -10.4707 316.912 -10.7407C316.829 -10.9724 316.75 -11.2039 316.674 -11.435C316.291 -10.8284 315.922 -10.2149 315.567 -9.5946C315.736 -9.76488 315.905 -9.93365 316.073 -10.1009L316.271 -9.92485ZM320.538 -13.8775C319.927 -13.2614 319.304 -12.6257 318.676 -11.9715C319.261 -12.6676 319.852 -13.3497 320.446 -14.0171L320.506 -13.9258L320.538 -13.8775ZM320.118 -14.5269C319.907 -14.8621 319.705 -15.197 319.511 -15.5316C318.664 -14.4072 317.85 -13.2528 317.081 -12.0708C317.162 -11.8048 317.248 -11.5384 317.34 -11.2716C318.25 -12.3925 319.182 -13.4786 320.118 -14.5269ZM314.411 -8.72306L314.337 -8.58501C314.382 -8.75153 314.429 -8.91774 314.477 -9.08364C314.48 -9.0107 314.483 -8.93772 314.487 -8.8647L314.411 -8.72306ZM316.445 -12.1698C315.959 -11.4141 315.491 -10.6469 315.045 -9.86909C315.042 -10.2091 315.046 -10.5482 315.057 -10.8863C315.368 -11.7613 315.716 -12.6266 316.097 -13.4815C316.2 -13.0454 316.316 -12.6081 316.445 -12.1698ZM319.196 -16.0872C318.389 -15.0235 317.608 -13.9319 316.867 -12.8145C316.726 -13.331 316.605 -13.846 316.501 -14.3594C317.054 -15.5232 317.666 -16.6667 318.326 -17.7878C318.592 -17.2221 318.882 -16.6552 319.196 -16.0872ZM318.028 -18.4399C318.001 -18.5023 317.974 -18.5648 317.947 -18.6272C317.665 -19.2809 317.413 -19.9326 317.192 -20.5821C316.768 -19.5202 316.398 -18.4431 316.09 -17.3523C316.139 -16.6851 316.216 -16.0146 316.323 -15.341C316.849 -16.392 317.42 -17.4255 318.028 -18.4399ZM315.889 -14.4449C315.806 -14.8681 315.735 -15.2901 315.676 -15.7109C315.471 -14.7852 315.312 -13.8505 315.205 -12.9075C315.421 -13.4238 315.649 -13.9363 315.889 -14.4449ZM316.911 -21.4545C316.588 -20.689 316.292 -19.9151 316.026 -19.1334C316.027 -20.583 316.158 -22.0157 316.4 -23.4287C316.541 -22.7732 316.711 -22.1151 316.911 -21.4545ZM292.347 19.8258C295.006 9.33223 303.401 0.0868259 310.162 -6.65754L310.597 -6.27056C303.833 0.476598 295.54 9.63133 292.92 19.9721C291.613 25.1333 291.72 30.5863 294.137 36.1868C296.555 41.7901 301.295 47.5632 309.292 53.3474C327.91 66.8139 345.204 67.4901 358.602 68.014C359.846 68.0626 361.056 68.1099 362.231 68.166C369.122 68.4953 374.867 69.1274 378.901 72.2064C382.955 75.3008 385.206 80.7986 385.319 90.656L384.731 90.642C384.617 80.8339 382.375 75.5584 378.539 72.6308C374.684 69.6878 369.142 69.0493 362.222 68.7187C361.049 68.6627 359.84 68.6155 358.595 68.5669C345.191 68.0442 327.72 67.3629 308.943 53.7813C300.883 47.9514 296.061 42.1004 293.592 36.3787C291.122 30.6544 291.016 25.0816 292.347 19.8258ZM303.726 -4.08031C296.965 2.66406 288.57 11.9095 285.912 22.403C284.58 27.6589 284.686 33.2316 287.156 38.9559C289.626 44.6776 294.447 50.5287 302.507 56.3585C321.284 69.9401 338.755 70.6214 352.159 71.1442L352.159 71.1442C353.404 71.1927 354.614 71.2399 355.786 71.2959C362.706 71.6265 368.248 72.265 372.104 75.208C375.939 78.1356 378.182 83.4111 378.295 93.2193L378.884 93.2332C378.77 83.3759 376.519 77.878 372.465 74.7836C368.431 71.7046 362.687 71.0725 355.795 70.7433C354.621 70.6872 353.41 70.6398 352.167 70.5912C338.769 70.0674 321.474 69.3911 302.856 55.9246C294.859 50.1404 290.119 44.3673 287.701 38.7641C285.284 33.1635 285.177 27.7106 286.485 22.5493C289.105 12.2086 297.398 3.05383 304.162 -3.69333L303.726 -4.08031ZM279.127 24.3579C281.786 13.8644 290.181 4.61897 296.942 -2.1254L297.377 -1.73842C290.613 5.00874 282.32 14.1635 279.7 24.5042C278.393 29.6655 278.5 35.1184 280.917 40.719C283.335 46.3222 288.075 52.0953 296.071 57.8795C314.689 71.346 331.984 72.0223 345.382 72.5461C346.626 72.5948 347.836 72.6421 349.01 72.6982C355.902 73.0274 361.647 73.6595 365.681 76.7385C369.735 79.8329 371.986 85.3308 372.099 95.1881L371.51 95.1742C371.397 85.3661 369.155 80.0905 365.319 77.163C361.463 74.2199 355.922 73.5814 349.002 73.2508C347.829 73.1948 346.62 73.1476 345.375 73.0991C331.971 72.5764 314.5 71.895 295.723 58.3134C287.663 52.4836 282.841 46.6325 280.372 40.9109C277.902 35.1865 277.795 29.6138 279.127 24.3579ZM289.952 -0.557702C283.191 6.18667 274.796 15.4321 272.138 25.9256C270.806 31.1815 270.912 36.7542 273.383 42.4786C275.852 48.2002 280.673 54.0513 288.734 59.8811C307.511 73.4627 324.982 74.1441 338.386 74.6668C339.63 74.7153 340.84 74.7625 342.012 74.8185C348.933 75.1491 354.474 75.7876 358.33 78.7307C362.165 81.6582 364.408 86.9337 364.521 96.7419L365.11 96.7558C364.996 86.8985 362.745 81.4006 358.691 78.3062C354.657 75.2272 348.913 74.5951 342.021 74.2659C340.847 74.2098 339.637 74.1625 338.393 74.1138C324.995 73.59 307.7 72.9137 289.082 59.4472C281.085 53.663 276.346 47.8899 273.927 42.2867C271.511 36.6861 271.403 31.2332 272.711 26.0719C275.331 15.7312 283.624 6.57644 290.388 -0.17072L289.952 -0.557702ZM265.051 27.3041C267.71 16.8106 276.105 7.56518 282.866 0.820812L283.301 1.20779C276.538 7.95495 268.244 17.1097 265.625 27.4504C264.317 32.6117 264.424 38.0646 266.841 43.6652C269.259 49.2684 273.999 55.0415 281.996 60.8257C300.614 74.2922 317.909 74.9685 331.307 75.4923C332.55 75.541 333.76 75.5883 334.935 75.6444C341.827 75.9737 347.571 76.6057 351.605 79.6847C355.659 82.7791 357.91 88.277 358.024 98.1343L357.435 98.1204C357.322 88.3123 355.079 83.0367 351.243 80.1092C347.388 77.1662 341.846 76.5276 334.926 76.197C333.754 76.141 332.544 76.0938 331.299 76.0453C317.895 75.5226 300.424 74.8412 281.647 61.2597C273.587 55.4298 268.765 49.5788 266.296 43.8571C263.826 38.1327 263.72 32.56 265.051 27.3041ZM275.764 2.16757C269.003 8.91193 260.608 18.1573 257.95 28.6509C256.618 33.9067 256.724 39.4795 259.195 45.2038C261.664 50.9255 266.485 56.7765 274.545 62.6064C293.323 76.188 310.794 76.8693 324.198 77.3921C325.442 77.4406 326.652 77.4878 327.824 77.5438C334.744 77.8744 340.286 78.5129 344.142 81.4559C347.977 84.3835 350.22 89.659 350.333 99.4672L350.922 99.4811C350.808 89.6238 348.557 84.1259 344.503 81.0315C340.469 77.9525 334.725 77.3204 327.833 76.9911C326.659 76.935 325.449 76.8877 324.205 76.8391C310.807 76.3152 293.512 75.639 274.894 62.1725C266.897 56.3883 262.158 50.6152 259.739 45.0119C257.323 39.4114 257.215 33.9584 258.523 28.7972C261.143 18.4564 269.436 9.3017 276.2 2.55455L275.764 2.16757ZM250.891 30.084C253.549 19.5904 261.944 10.345 268.705 3.60068L269.141 3.98766C262.377 10.7348 254.084 19.8896 251.464 30.2303C250.156 35.3916 250.264 40.8445 252.68 46.4451C255.099 52.0483 259.838 57.8214 267.835 63.6056C286.453 77.0721 303.748 77.7483 317.146 78.2722C318.39 78.3208 319.6 78.3682 320.774 78.4243C327.666 78.7535 333.41 79.3856 337.444 82.4646C341.498 85.559 343.749 91.0569 343.863 100.914L343.274 100.9C343.161 91.0921 340.918 85.8166 337.083 82.889C333.227 79.946 327.686 79.3075 320.765 78.9769C319.593 78.9209 318.383 78.8737 317.139 78.8252C303.735 78.3024 286.264 77.6211 267.487 64.0395C259.426 58.2096 254.605 52.3586 252.136 46.6369C249.665 40.9126 249.559 35.3399 250.891 30.084ZM261.736 5.20689C254.975 11.9513 246.58 21.1967 243.921 31.6902C242.59 36.9461 242.696 42.5188 245.166 48.2431C247.636 53.9648 252.457 59.8158 260.517 65.6457C279.294 79.2273 296.765 79.9086 310.169 80.4314L310.169 80.4314C311.414 80.4799 312.624 80.5271 313.796 80.5831C320.716 80.9137 326.258 81.5522 330.114 84.4953C333.949 87.4228 336.192 92.6983 336.305 102.506L336.894 102.52C336.78 92.6631 334.529 87.1652 330.475 84.0708C326.441 80.9918 320.697 80.3597 313.805 80.0305C312.63 79.9744 311.42 79.927 310.177 79.8784C296.779 79.3546 279.484 78.6783 260.866 65.2118C252.869 59.4276 248.129 53.6545 245.711 48.0513C243.294 42.4507 243.187 36.9978 244.495 31.8365C247.115 21.4958 255.408 12.341 262.171 5.59387L261.736 5.20689ZM237.075 33.5295C239.734 23.036 248.129 13.7906 254.89 7.04624L255.325 7.43322C248.562 14.1804 240.268 23.3351 237.649 33.6759C236.341 38.8371 236.448 44.2901 238.865 49.8906C241.283 55.4938 246.023 61.267 254.02 67.0512C272.638 80.5177 289.933 81.1939 303.33 81.7178C304.574 81.7664 305.784 81.8137 306.959 81.8698C313.85 82.1991 319.595 82.8312 323.629 85.9101C327.683 89.0046 329.934 94.5024 330.048 104.36L329.459 104.346C329.346 94.5377 327.103 89.2622 323.267 86.3346C319.412 83.3916 313.87 82.7531 306.95 82.4225C305.778 82.3664 304.568 82.3193 303.323 82.2707L303.323 82.2707C289.919 81.748 272.448 81.0667 253.671 67.4851C245.611 61.6552 240.789 55.8042 238.32 50.0825C235.85 44.3582 235.744 38.7854 237.075 33.5295ZM248.191 9.15866C241.43 15.903 233.035 25.1484 230.377 35.642C229.045 40.8978 229.151 46.4706 231.622 52.1949C234.091 57.9166 238.912 63.7676 246.972 69.5975C265.749 83.1791 283.221 83.8604 296.624 84.3832L296.624 84.3831L296.624 84.3831C297.869 84.4317 299.079 84.4789 300.251 84.5349C307.171 84.8655 312.713 85.504 316.569 88.447C320.404 91.3746 322.647 96.6501 322.76 106.458L323.349 106.472C323.235 96.6148 320.984 91.117 316.93 88.0226C312.896 84.9436 307.152 84.3115 300.26 83.9822C299.086 83.9261 297.875 83.8788 296.632 83.8302C283.234 83.3063 265.939 82.6301 247.321 69.1636C239.324 63.3794 234.584 57.6063 232.166 52.003C229.749 46.4025 229.642 40.9495 230.95 35.7883C233.57 25.4475 241.863 16.2928 248.627 9.54564L248.191 9.15866Z" fill="url(#paint0_radial_30_175)" fill-opacity="0.58"/>
<path d="M20.82 25V19.41L24.52 25H25.5V17.77H24.52V23.36L20.82 17.77H19.84V25H20.82ZM29.1338 25.12C30.3438 25.12 31.1638 24.53 31.4038 23.48H30.5238C30.3638 24.04 29.8838 24.34 29.1538 24.34C28.2238 24.34 27.6838 23.77 27.6138 22.74L31.3937 22.73V22.38C31.3937 20.93 30.4838 19.97 29.0938 19.97C27.6738 19.97 26.7038 21.03 26.7038 22.56C26.7038 24.08 27.6938 25.12 29.1338 25.12ZM29.0938 20.76C29.9238 20.76 30.4538 21.3 30.4538 22.11H27.6338C27.7538 21.25 28.2738 20.76 29.0938 20.76ZM33.3277 25H34.2577L35.1077 22.39C35.2877 21.8 35.3777 21.48 35.4277 21.24C35.4777 21.51 35.5777 21.89 35.7377 22.38L36.5877 25H37.4777L39.1477 20.11H38.1677L37.3477 22.65C37.2077 23.08 37.1177 23.42 37.0377 23.81C36.9577 23.46 36.7977 22.89 36.7177 22.65L35.9077 20.11H34.9477L34.1277 22.65C34.0177 22.97 33.8877 23.38 33.8077 23.81C33.7177 23.38 33.6177 23.01 33.5077 22.65L32.6977 20.11H31.7277L33.3277 25ZM43.1478 25L43.7878 23.2H46.8278L47.4778 25H48.5078L45.8578 17.77H44.7678L42.1278 25H43.1478ZM45.1878 19.33C45.2378 19.18 45.2878 19.01 45.3078 18.91C45.3278 19.02 45.3778 19.19 45.4278 19.33L46.5378 22.35H44.0878L45.1878 19.33ZM50.2689 25V17.64H49.3289V25H50.2689ZM52.5027 25L52.5727 24.11C52.8927 24.78 53.5427 25.12 54.3127 25.12C55.7327 25.12 56.6127 24.06 56.6127 22.58C56.6127 21.07 55.7727 19.97 54.3727 19.97C53.5727 19.97 52.9127 20.31 52.5927 20.95V17.64H51.6527V25H52.5027ZM52.6027 22.54C52.6027 21.54 53.1827 20.82 54.1427 20.82C55.1027 20.82 55.6727 21.54 55.6727 22.54C55.6727 23.55 55.1027 24.27 54.1427 24.27C53.1827 24.27 52.6027 23.56 52.6027 22.54ZM60.9116 20.11V22.69C60.9116 23.74 60.4416 24.29 59.5816 24.29C58.8616 24.29 58.4116 23.89 58.4116 22.84V20.11H57.4716V23.15C57.4716 24.35 58.1116 25.12 59.2516 25.12C59.9716 25.12 60.6216 24.77 60.9016 24.26L61.0016 25H61.8416V20.11H60.9116ZM64.1454 25V22.1C64.1454 21.32 64.6154 20.83 65.3254 20.83C65.9854 20.83 66.4054 21.25 66.4054 22.02V25H67.3354V22.1C67.3354 21.32 67.8054 20.82 68.5154 20.82C69.1754 20.82 69.6054 21.26 69.6054 22.03V25H70.5254V21.8C70.5254 20.67 69.8454 19.97 68.7254 19.97C67.9654 19.97 67.3754 20.35 67.1454 20.96C66.8954 20.35 66.3554 19.97 65.5954 19.97C64.9054 19.97 64.3854 20.29 64.1354 20.75L64.0454 20.11H63.2054V25H64.1454Z" fill="#FBFBFB"/>
<path d="M21.366 99H20.092V89.601H21.366L26.527 97.401H26.176V89.601H27.45V99H26.176L21.015 91.2H21.366V99ZM31.2899 99.156C30.6139 99.156 30.0809 98.9783 29.6909 98.623C29.3095 98.2677 29.1189 97.804 29.1189 97.232C29.1189 96.6513 29.3269 96.1877 29.7429 95.841C30.1589 95.4857 30.7395 95.2777 31.4849 95.217L33.4869 95.061V94.879C33.4869 94.5237 33.4219 94.242 33.2919 94.034C33.1619 93.8173 32.9842 93.6657 32.7589 93.579C32.5335 93.4837 32.2779 93.436 31.9919 93.436C31.4805 93.436 31.0819 93.5443 30.7959 93.761C30.5185 93.969 30.3799 94.268 30.3799 94.658H29.3139C29.3139 94.216 29.4265 93.8303 29.6519 93.501C29.8772 93.1717 30.1935 92.916 30.6009 92.734C31.0169 92.552 31.4979 92.461 32.0439 92.461C32.5725 92.461 33.0319 92.5563 33.4219 92.747C33.8205 92.929 34.1282 93.2107 34.3449 93.592C34.5702 93.9647 34.6829 94.437 34.6829 95.009V99H33.6429L33.5129 97.973C33.3482 98.337 33.0622 98.6273 32.6549 98.844C32.2562 99.052 31.8012 99.156 31.2899 99.156ZM31.6409 98.207C32.2215 98.207 32.6765 98.0337 33.0059 97.687C33.3352 97.3317 33.4999 96.855 33.4999 96.257V95.919L31.8749 96.049C31.3375 96.101 30.9475 96.2267 30.7049 96.426C30.4709 96.6253 30.3539 96.881 30.3539 97.193C30.3539 97.531 30.4665 97.7867 30.6919 97.96C30.9259 98.1247 31.2422 98.207 31.6409 98.207ZM38.9232 99.156C38.3079 99.156 37.7792 99.0173 37.3372 98.74C36.8952 98.454 36.5529 98.0597 36.3102 97.557C36.0762 97.0543 35.9592 96.4823 35.9592 95.841C35.9592 95.191 36.0805 94.6147 36.3232 94.112C36.5659 93.6007 36.9125 93.1977 37.3632 92.903C37.8139 92.6083 38.3512 92.461 38.9752 92.461C39.4692 92.461 39.9069 92.565 40.2882 92.773C40.6782 92.9723 40.9815 93.2713 41.1982 93.67V89.432H42.4072V99H41.3152L41.2112 97.843C41.0032 98.2677 40.6955 98.5927 40.2882 98.818C39.8895 99.0433 39.4345 99.156 38.9232 99.156ZM39.1702 98.051C39.5862 98.051 39.9415 97.9557 40.2362 97.765C40.5395 97.5743 40.7735 97.31 40.9382 96.972C41.1029 96.634 41.1852 96.244 41.1852 95.802C41.1852 95.36 41.1029 94.9743 40.9382 94.645C40.7735 94.307 40.5395 94.0427 40.2362 93.852C39.9415 93.6613 39.5862 93.566 39.1702 93.566C38.7542 93.566 38.3989 93.6657 38.1042 93.865C37.8095 94.0557 37.5842 94.32 37.4282 94.658C37.2722 94.9873 37.1942 95.3687 37.1942 95.802C37.1942 96.244 37.2722 96.634 37.4282 96.972C37.5842 97.31 37.8095 97.5743 38.1042 97.765C38.3989 97.9557 38.7542 98.051 39.1702 98.051ZM44.1701 99V92.643H45.3921V99H44.1701ZM44.7681 91.135C44.5515 91.135 44.3608 91.057 44.1961 90.901C44.0401 90.7363 43.9621 90.5457 43.9621 90.329C43.9621 90.1037 44.0401 89.913 44.1961 89.757C44.3608 89.601 44.5515 89.523 44.7681 89.523C44.9935 89.523 45.1841 89.601 45.3401 89.757C45.4961 89.913 45.5741 90.1037 45.5741 90.329C45.5741 90.5457 45.4961 90.7363 45.3401 90.901C45.1841 91.057 44.9935 91.135 44.7681 91.135ZM48.3882 99H47.1662V92.643H48.2712L48.4012 93.618C48.6006 93.254 48.8866 92.9723 49.2592 92.773C49.6406 92.565 50.0566 92.461 50.5072 92.461C51.3392 92.461 51.9546 92.6993 52.3532 93.176C52.7519 93.6527 52.9512 94.2983 52.9512 95.113V99H51.7292V95.386C51.7292 94.7447 51.5906 94.2853 51.3132 94.008C51.0359 93.722 50.6632 93.579 50.1952 93.579C49.6232 93.579 49.1769 93.7653 48.8562 94.138C48.5442 94.5107 48.3882 95.009 48.3882 95.633V99ZM58.7965 99H57.4705L60.9025 89.601H62.3195L65.7645 99H64.4255L63.5805 96.66H59.6285L58.7965 99ZM61.4485 91.629L60.0185 95.555H63.2035L61.7605 91.629C61.7345 91.5337 61.7041 91.4383 61.6695 91.343C61.6348 91.239 61.6131 91.1523 61.6045 91.083C61.5871 91.1523 61.5655 91.239 61.5395 91.343C61.5135 91.4383 61.4831 91.5337 61.4485 91.629ZM68.0279 99H66.8059V92.643H67.8979L68.0669 93.813L67.9109 93.709C68.0409 93.3537 68.2792 93.059 68.6259 92.825C68.9812 92.5823 69.4102 92.461 69.9129 92.461C70.4762 92.461 70.9442 92.6127 71.3169 92.916C71.6895 93.2193 71.9322 93.6223 72.0449 94.125H71.8239C71.9105 93.6223 72.1489 93.2193 72.5389 92.916C72.9289 92.6127 73.4099 92.461 73.9819 92.461C74.7099 92.461 75.2819 92.6733 75.6979 93.098C76.1139 93.5227 76.3219 94.1033 76.3219 94.84V99H75.1259V95.139C75.1259 94.6363 74.9959 94.2507 74.7359 93.982C74.4845 93.7047 74.1422 93.566 73.7089 93.566C73.4055 93.566 73.1369 93.6353 72.9029 93.774C72.6775 93.904 72.4999 94.0947 72.3699 94.346C72.2399 94.5973 72.1749 94.892 72.1749 95.23V99H70.9659V95.126C70.9659 94.6233 70.8402 94.242 70.5889 93.982C70.3375 93.7133 69.9952 93.579 69.5619 93.579C69.2585 93.579 68.9899 93.6483 68.7559 93.787C68.5305 93.917 68.3529 94.1077 68.2229 94.359C68.0929 94.6017 68.0279 94.892 68.0279 95.23V99ZM78.0158 99V92.643H79.2378V99H78.0158ZM78.6138 91.135C78.3972 91.135 78.2065 91.057 78.0418 90.901C77.8858 90.7363 77.8078 90.5457 77.8078 90.329C77.8078 90.1037 77.8858 89.913 78.0418 89.757C78.2065 89.601 78.3972 89.523 78.6138 89.523C78.8392 89.523 79.0298 89.601 79.1858 89.757C79.3418 89.913 79.4198 90.1037 79.4198 90.329C79.4198 90.5457 79.3418 90.7363 79.1858 90.901C79.0298 91.057 78.8392 91.135 78.6138 91.135ZM85.5749 99H80.6219V98.012L84.0539 93.67H80.6219V92.643H85.5749V93.644L82.1169 97.973H85.5749V99ZM88.8123 99.156C88.1363 99.156 87.6033 98.9783 87.2133 98.623C86.832 98.2677 86.6413 97.804 86.6413 97.232C86.6413 96.6513 86.8493 96.1877 87.2653 95.841C87.6813 95.4857 88.262 95.2777 89.0073 95.217L91.0093 95.061V94.879C91.0093 94.5237 90.9443 94.242 90.8143 94.034C90.6843 93.8173 90.5067 93.6657 90.2813 93.579C90.056 93.4837 89.8003 93.436 89.5143 93.436C89.003 93.436 88.6043 93.5443 88.3183 93.761C88.041 93.969 87.9023 94.268 87.9023 94.658H86.8363C86.8363 94.216 86.949 93.8303 87.1743 93.501C87.3997 93.1717 87.716 92.916 88.1233 92.734C88.5393 92.552 89.0203 92.461 89.5663 92.461C90.095 92.461 90.5543 92.5563 90.9443 92.747C91.343 92.929 91.6507 93.2107 91.8673 93.592C92.0927 93.9647 92.2053 94.437 92.2053 95.009V99H91.1653L91.0353 97.973C90.8707 98.337 90.5847 98.6273 90.1773 98.844C89.7787 99.052 89.3237 99.156 88.8123 99.156ZM89.1633 98.207C89.744 98.207 90.199 98.0337 90.5283 97.687C90.8577 97.3317 91.0223 96.855 91.0223 96.257V95.919L89.3973 96.049C88.86 96.101 88.47 96.2267 88.2273 96.426C87.9933 96.6253 87.8763 96.881 87.8763 97.193C87.8763 97.531 87.989 97.7867 88.2143 97.96C88.4483 98.1247 88.7647 98.207 89.1633 98.207ZM95.1197 98.987H93.8977V89.432H95.1197V93.618C95.319 93.2713 95.605 92.994 95.9777 92.786C96.3503 92.5693 96.7837 92.461 97.2777 92.461C98.0837 92.461 98.686 92.6993 99.0847 93.176C99.4833 93.6527 99.6827 94.2983 99.6827 95.113V99H98.4607V95.386C98.4607 94.9527 98.3957 94.606 98.2657 94.346C98.1443 94.0773 97.9667 93.8823 97.7327 93.761C97.5073 93.6397 97.243 93.579 96.9397 93.579C96.5497 93.579 96.216 93.6657 95.9387 93.839C95.67 94.0123 95.4663 94.2463 95.3277 94.541C95.189 94.8357 95.1197 95.165 95.1197 95.529V98.987Z" fill="#FBFBFB"/>
<path d="M20.216 46.728V39.304H22.264V46.6C22.264 47.4427 22.488 48.088 22.936 48.536C23.384 48.984 24.0187 49.208 24.84 49.208C25.672 49.208 26.312 48.984 26.76 48.536C27.208 48.0773 27.432 47.432 27.432 46.6V39.304H29.48V46.728C29.48 47.6347 29.288 48.424 28.904 49.096C28.5307 49.7573 27.9973 50.2747 27.304 50.648C26.6107 51.0107 25.7893 51.192 24.84 51.192C23.9013 51.192 23.0853 51.0107 22.392 50.648C21.6987 50.2853 21.16 49.768 20.776 49.096C20.4027 48.424 20.216 47.6347 20.216 46.728ZM33.6631 51H31.7111V43.096H33.5191L33.6791 44.12C33.9245 43.7253 34.2711 43.416 34.7191 43.192C35.1778 42.968 35.6738 42.856 36.2071 42.856C37.1991 42.856 37.9458 43.1493 38.4471 43.736C38.9591 44.3227 39.2151 45.1227 39.2151 46.136V51H37.2631V46.6C37.2631 45.9387 37.1138 45.448 36.8151 45.128C36.5165 44.7973 36.1111 44.632 35.5991 44.632C34.9911 44.632 34.5165 44.824 34.1751 45.208C33.8338 45.592 33.6631 46.104 33.6631 46.744V51ZM40.349 43.096H45.341V44.728H40.349V43.096ZM43.821 51H41.869V40.632H43.821V51ZM51.9305 43.096H53.8825V51H52.0745L51.9305 49.944C51.6958 50.3173 51.3438 50.6213 50.8745 50.856C50.4052 51.0907 49.9038 51.208 49.3705 51.208C48.4638 51.208 47.7545 50.92 47.2425 50.344C46.7305 49.768 46.4745 49 46.4745 48.04V43.096H48.4265V47.352C48.4265 48.0987 48.5705 48.6373 48.8585 48.968C49.1465 49.2987 49.5625 49.464 50.1065 49.464C50.7252 49.464 51.1838 49.2827 51.4825 48.92C51.7812 48.5467 51.9305 47.9867 51.9305 47.24V43.096ZM57.8666 51H55.9306V39.096H57.8666V46.408L60.9386 43.096H63.3866L60.3786 46.232L63.3226 51H61.0826L59.0186 47.672L57.8666 48.872V51ZM73.3165 51H69.1085V39.304H73.2045C74.3565 39.304 75.3698 39.5547 76.2445 40.056C77.1192 40.5467 77.8018 41.2347 78.2925 42.12C78.7938 42.9947 79.0445 44.0133 79.0445 45.176C79.0445 46.3173 78.7992 47.3307 78.3085 48.216C77.8285 49.0907 77.1565 49.7733 76.2925 50.264C75.4392 50.7547 74.4472 51 73.3165 51ZM71.1565 40.248V50.072L70.1805 49.112H73.1245C73.9032 49.112 74.5752 48.952 75.1405 48.632C75.7058 48.312 76.1378 47.8587 76.4365 47.272C76.7352 46.6853 76.8845 45.9867 76.8845 45.176C76.8845 44.344 76.7298 43.6347 76.4205 43.048C76.1112 42.4507 75.6685 41.992 75.0925 41.672C74.5165 41.352 73.8232 41.192 73.0125 41.192H70.1805L71.1565 40.248ZM86.0243 43.096H87.9763V51H86.1683L86.0243 49.944C85.7896 50.3173 85.4376 50.6213 84.9683 50.856C84.4989 51.0907 83.9976 51.208 83.4643 51.208C82.5576 51.208 81.8483 50.92 81.3363 50.344C80.8243 49.768 80.5683 49 80.5683 48.04V43.096H82.5203V47.352C82.5203 48.0987 82.6643 48.6373 82.9523 48.968C83.2403 49.2987 83.6563 49.464 84.2003 49.464C84.8189 49.464 85.2776 49.2827 85.5763 48.92C85.8749 48.5467 86.0243 47.9867 86.0243 47.24V43.096ZM91.9444 51H89.9924V43.096H91.8004L91.9604 44.12C92.2057 43.7253 92.5524 43.416 93.0004 43.192C93.459 42.968 93.955 42.856 94.4884 42.856C95.4804 42.856 96.227 43.1493 96.7284 43.736C97.2404 44.3227 97.4964 45.1227 97.4964 46.136V51H95.5444V46.6C95.5444 45.9387 95.395 45.448 95.0964 45.128C94.7977 44.7973 94.3924 44.632 93.8804 44.632C93.2724 44.632 92.7977 44.824 92.4564 45.208C92.115 45.592 91.9444 46.104 91.9444 46.744V51ZM99.4143 51V43.096H101.366V51H99.4143ZM100.374 41.512C100.044 41.512 99.7609 41.4 99.5263 41.176C99.3023 40.9413 99.1903 40.6587 99.1903 40.328C99.1903 39.9973 99.3023 39.72 99.5263 39.496C99.7609 39.272 100.044 39.16 100.374 39.16C100.705 39.16 100.982 39.272 101.206 39.496C101.441 39.72 101.558 39.9973 101.558 40.328C101.558 40.6587 101.441 40.9413 101.206 41.176C100.982 41.4 100.705 41.512 100.374 41.512ZM105.735 51.208C104.903 51.208 104.242 50.984 103.751 50.536C103.271 50.0773 103.031 49.48 103.031 48.744C103.031 48.0187 103.282 47.4427 103.783 47.016C104.295 46.5787 105.02 46.3227 105.959 46.248L108.327 46.056V45.88C108.327 45.5173 108.258 45.2293 108.119 45.016C107.991 44.792 107.804 44.632 107.559 44.536C107.314 44.4293 107.026 44.376 106.695 44.376C106.119 44.376 105.676 44.4933 105.367 44.728C105.058 44.952 104.903 45.272 104.903 45.688H103.239C103.239 45.112 103.383 44.616 103.671 44.2C103.97 43.7733 104.386 43.4427 104.919 43.208C105.463 42.9733 106.087 42.856 106.791 42.856C107.506 42.856 108.119 42.984 108.631 43.24C109.143 43.4853 109.538 43.8587 109.815 44.36C110.092 44.8507 110.231 45.464 110.231 46.2V51H108.519L108.375 49.832C108.204 50.2373 107.874 50.568 107.383 50.824C106.903 51.08 106.354 51.208 105.735 51.208ZM106.359 49.736C106.967 49.736 107.447 49.5653 107.799 49.224C108.162 48.8827 108.343 48.408 108.343 47.8V47.384L106.695 47.512C106.087 47.5653 105.655 47.6933 105.399 47.896C105.143 48.088 105.015 48.344 105.015 48.664C105.015 49.016 105.132 49.2827 105.367 49.464C105.602 49.6453 105.932 49.736 106.359 49.736ZM113.749 50.856L113.941 50.808C113.855 50.8827 113.759 50.9413 113.653 50.984C113.557 51.016 113.439 51.032 113.301 51.032C112.991 51.032 112.725 50.9307 112.501 50.728C112.277 50.5147 112.165 50.248 112.165 49.928C112.165 49.544 112.277 49.2347 112.501 49C112.725 48.7653 113.018 48.648 113.381 48.648C113.786 48.648 114.117 48.7973 114.373 49.096C114.629 49.3947 114.757 49.7947 114.757 50.296C114.757 50.7333 114.661 51.1333 114.469 51.496C114.277 51.8693 114.01 52.1733 113.669 52.408C113.327 52.6427 112.938 52.7867 112.501 52.84V52.056C112.863 51.992 113.162 51.8533 113.397 51.64C113.631 51.4373 113.749 51.176 113.749 50.856ZM126.349 51.192C125.208 51.192 124.216 50.9467 123.373 50.456C122.541 49.9547 121.891 49.256 121.421 48.36C120.963 47.4533 120.733 46.3867 120.733 45.16C120.733 43.944 120.968 42.8827 121.437 41.976C121.917 41.0693 122.589 40.3653 123.453 39.864C124.317 39.3627 125.315 39.112 126.445 39.112C127.373 39.112 128.205 39.2827 128.941 39.624C129.677 39.9653 130.285 40.4453 130.765 41.064C131.245 41.672 131.549 42.3973 131.677 43.24H129.517C129.315 42.5573 128.936 42.0293 128.381 41.656C127.837 41.272 127.171 41.08 126.381 41.08C125.677 41.08 125.059 41.2453 124.525 41.576C124.003 41.9067 123.597 42.376 123.309 42.984C123.021 43.592 122.877 44.3173 122.877 45.16C122.877 45.9707 123.021 46.6853 123.309 47.304C123.597 47.912 124.003 48.3867 124.525 48.728C125.059 49.0587 125.677 49.224 126.381 49.224C127.181 49.224 127.864 49.032 128.429 48.648C129.005 48.264 129.389 47.7467 129.581 47.096H131.709C131.56 47.9067 131.235 48.6213 130.733 49.24C130.243 49.8587 129.619 50.3387 128.861 50.68C128.115 51.0213 127.277 51.192 126.349 51.192ZM133.258 51V43.096H135.21V51H133.258ZM134.218 41.512C133.887 41.512 133.605 41.4 133.37 41.176C133.146 40.9413 133.034 40.6587 133.034 40.328C133.034 39.9973 133.146 39.72 133.37 39.496C133.605 39.272 133.887 39.16 134.218 39.16C134.549 39.16 134.826 39.272 135.05 39.496C135.285 39.72 135.402 39.9973 135.402 40.328C135.402 40.6587 135.285 40.9413 135.05 41.176C134.826 41.4 134.549 41.512 134.218 41.512ZM139.179 51H137.227V43.096H139.035L139.195 44.12C139.44 43.7253 139.787 43.416 140.235 43.192C140.693 42.968 141.189 42.856 141.723 42.856C142.715 42.856 143.461 43.1493 143.963 43.736C144.475 44.3227 144.731 45.1227 144.731 46.136V51H142.779V46.6C142.779 45.9387 142.629 45.448 142.331 45.128C142.032 44.7973 141.627 44.632 141.115 44.632C140.507 44.632 140.032 44.824 139.691 45.208C139.349 45.592 139.179 46.104 139.179 46.744V51ZM145.865 43.096H150.857V44.728H145.865V43.096ZM149.337 51H147.385V40.632H149.337V51ZM154.391 51.208C153.559 51.208 152.898 50.984 152.407 50.536C151.927 50.0773 151.687 49.48 151.687 48.744C151.687 48.0187 151.938 47.4427 152.439 47.016C152.951 46.5787 153.677 46.3227 154.615 46.248L156.983 46.056V45.88C156.983 45.5173 156.914 45.2293 156.775 45.016C156.647 44.792 156.461 44.632 156.215 44.536C155.97 44.4293 155.682 44.376 155.351 44.376C154.775 44.376 154.333 44.4933 154.023 44.728C153.714 44.952 153.559 45.272 153.559 45.688H151.895C151.895 45.112 152.039 44.616 152.327 44.2C152.626 43.7733 153.042 43.4427 153.575 43.208C154.119 42.9733 154.743 42.856 155.447 42.856C156.162 42.856 156.775 42.984 157.287 43.24C157.799 43.4853 158.194 43.8587 158.471 44.36C158.749 44.8507 158.887 45.464 158.887 46.2V51H157.175L157.031 49.832C156.861 50.2373 156.53 50.568 156.039 50.824C155.559 51.08 155.01 51.208 154.391 51.208ZM155.015 49.736C155.623 49.736 156.103 49.5653 156.455 49.224C156.818 48.8827 156.999 48.408 156.999 47.8V47.384L155.351 47.512C154.743 47.5653 154.311 47.6933 154.055 47.896C153.799 48.088 153.671 48.344 153.671 48.664C153.671 49.016 153.789 49.2827 154.023 49.464C154.258 49.6453 154.589 49.736 155.015 49.736ZM162.405 50.856L162.597 50.808C162.512 50.8827 162.416 50.9413 162.309 50.984C162.213 51.016 162.096 51.032 161.957 51.032C161.648 51.032 161.381 50.9307 161.157 50.728C160.933 50.5147 160.821 50.248 160.821 49.928C160.821 49.544 160.933 49.2347 161.157 49C161.381 48.7653 161.674 48.648 162.037 48.648C162.442 48.648 162.773 48.7973 163.029 49.096C163.285 49.3947 163.413 49.7947 163.413 50.296C163.413 50.7333 163.317 51.1333 163.125 51.496C162.933 51.8693 162.666 52.1733 162.325 52.408C161.984 52.6427 161.594 52.7867 161.157 52.84V52.056C161.52 51.992 161.818 51.8533 162.053 51.64C162.288 51.4373 162.405 51.176 162.405 50.856ZM24.504 73H20.296V61.304H24.392C25.544 61.304 26.5573 61.5547 27.432 62.056C28.3067 62.5467 28.9893 63.2347 29.48 64.12C29.9813 64.9947 30.232 66.0133 30.232 67.176C30.232 68.3173 29.9867 69.3307 29.496 70.216C29.016 71.0907 28.344 71.7733 27.48 72.264C26.6267 72.7547 25.6347 73 24.504 73ZM22.344 62.248V72.072L21.368 71.112H24.312C25.0907 71.112 25.7627 70.952 26.328 70.632C26.8933 70.312 27.3253 69.8587 27.624 69.272C27.9227 68.6853 28.072 67.9867 28.072 67.176C28.072 66.344 27.9173 65.6347 27.608 65.048C27.2987 64.4507 26.856 63.992 26.28 63.672C25.704 63.352 25.0107 63.192 24.2 63.192H21.368L22.344 62.248ZM34.2038 73.208C33.3718 73.208 32.7104 72.984 32.2198 72.536C31.7398 72.0773 31.4998 71.48 31.4998 70.744C31.4998 70.0187 31.7504 69.4427 32.2518 69.016C32.7638 68.5787 33.4891 68.3227 34.4278 68.248L36.7958 68.056V67.88C36.7958 67.5173 36.7264 67.2293 36.5878 67.016C36.4598 66.792 36.2731 66.632 36.0278 66.536C35.7824 66.4293 35.4944 66.376 35.1638 66.376C34.5878 66.376 34.1451 66.4933 33.8358 66.728C33.5264 66.952 33.3718 67.272 33.3718 67.688H31.7078C31.7078 67.112 31.8518 66.616 32.1398 66.2C32.4384 65.7733 32.8544 65.4427 33.3878 65.208C33.9318 64.9733 34.5558 64.856 35.2598 64.856C35.9744 64.856 36.5878 64.984 37.0998 65.24C37.6118 65.4853 38.0064 65.8587 38.2838 66.36C38.5611 66.8507 38.6998 67.464 38.6998 68.2V73H36.9878L36.8438 71.832C36.6731 72.2373 36.3424 72.568 35.8518 72.824C35.3718 73.08 34.8224 73.208 34.2038 73.208ZM34.8278 71.736C35.4358 71.736 35.9158 71.5653 36.2678 71.224C36.6304 70.8827 36.8118 70.408 36.8118 69.8V69.384L35.1638 69.512C34.5558 69.5653 34.1238 69.6933 33.8678 69.896C33.6118 70.088 33.4838 70.344 33.4838 70.664C33.4838 71.016 33.6011 71.2827 33.8358 71.464C34.0704 71.6453 34.4011 71.736 34.8278 71.736ZM42.5694 73H40.6174V65.096H42.4254L42.5854 66.12C42.8307 65.7253 43.1774 65.416 43.6254 65.192C44.084 64.968 44.58 64.856 45.1134 64.856C46.1054 64.856 46.852 65.1493 47.3534 65.736C47.8654 66.3227 48.1214 67.1227 48.1214 68.136V73H46.1694V68.6C46.1694 67.9387 46.02 67.448 45.7214 67.128C45.4227 66.7973 45.0174 66.632 44.5054 66.632C43.8974 66.632 43.4227 66.824 43.0814 67.208C42.74 67.592 42.5694 68.104 42.5694 68.744V73ZM63.8398 61.304L56.2078 71.128V68.072L61.4237 61.304H63.8398ZM56.6878 61.304V73H54.6398V61.304H56.6878ZM58.5438 67.88L59.8558 66.12L63.8878 73H61.5198L58.5438 67.88ZM64.0753 69.032C64.0753 68.2107 64.2566 67.4907 64.6193 66.872C64.9819 66.2427 65.4833 65.752 66.1233 65.4C66.7633 65.048 67.4886 64.872 68.2993 64.872C69.1206 64.872 69.8459 65.048 70.4753 65.4C71.1153 65.752 71.6166 66.2427 71.9792 66.872C72.3419 67.4907 72.5233 68.2107 72.5233 69.032C72.5233 69.8533 72.3419 70.5787 71.9792 71.208C71.6166 71.8267 71.1153 72.312 70.4753 72.664C69.8459 73.016 69.1206 73.192 68.2993 73.192C67.4886 73.192 66.7633 73.016 66.1233 72.664C65.4833 72.312 64.9819 71.8267 64.6193 71.208C64.2566 70.5787 64.0753 69.8533 64.0753 69.032ZM66.0273 69.032C66.0273 69.512 66.1233 69.9333 66.3153 70.296C66.5179 70.6587 66.7846 70.9413 67.1153 71.144C67.4566 71.3467 67.8513 71.448 68.2993 71.448C68.7473 71.448 69.1419 71.3467 69.4833 71.144C69.8246 70.9413 70.0913 70.6587 70.2833 70.296C70.4753 69.9333 70.5713 69.512 70.5713 69.032C70.5713 68.5413 70.4753 68.12 70.2833 67.768C70.0913 67.4053 69.8246 67.1227 69.4833 66.92C69.1419 66.7173 68.7473 66.616 68.2993 66.616C67.8513 66.616 67.4566 66.7173 67.1153 66.92C66.7846 67.1227 66.5179 67.4053 66.3153 67.768C66.1233 68.12 66.0273 68.5413 66.0273 69.032ZM73.2084 65.096H78.2004V66.728H73.2084V65.096ZM76.6804 73H74.7284V62.632H76.6804V73ZM78.8878 69.032C78.8878 68.2107 79.0691 67.4907 79.4318 66.872C79.7944 66.2427 80.2958 65.752 80.9358 65.4C81.5758 65.048 82.3011 64.872 83.1118 64.872C83.9331 64.872 84.6584 65.048 85.2878 65.4C85.9278 65.752 86.4291 66.2427 86.7917 66.872C87.1544 67.4907 87.3358 68.2107 87.3358 69.032C87.3358 69.8533 87.1544 70.5787 86.7917 71.208C86.4291 71.8267 85.9278 72.312 85.2878 72.664C84.6584 73.016 83.9331 73.192 83.1118 73.192C82.3011 73.192 81.5758 73.016 80.9358 72.664C80.2958 72.312 79.7944 71.8267 79.4318 71.208C79.0691 70.5787 78.8878 69.8533 78.8878 69.032ZM80.8398 69.032C80.8398 69.512 80.9358 69.9333 81.1278 70.296C81.3304 70.6587 81.5971 70.9413 81.9278 71.144C82.2691 71.3467 82.6638 71.448 83.1118 71.448C83.5598 71.448 83.9544 71.3467 84.2958 71.144C84.6371 70.9413 84.9038 70.6587 85.0958 70.296C85.2878 69.9333 85.3838 69.512 85.3838 69.032C85.3838 68.5413 85.2878 68.12 85.0958 67.768C84.9038 67.4053 84.6371 67.1227 84.2958 66.92C83.9544 66.7173 83.5598 66.616 83.1118 66.616C82.6638 66.616 82.2691 66.7173 81.9278 66.92C81.5971 67.1227 81.3304 67.4053 81.1278 67.768C80.9358 68.12 80.8398 68.5413 80.8398 69.032ZM93.843 65.064V66.872H93.123C92.4083 66.872 91.8483 67.064 91.443 67.448C91.0377 67.8213 90.835 68.392 90.835 69.16V73H88.883V65.112H90.723L90.883 66.744H90.691C90.7977 66.2213 91.0483 65.7947 91.443 65.464C91.8377 65.1333 92.3497 64.968 92.979 64.968C93.1177 64.968 93.2563 64.9733 93.395 64.984C93.5337 64.9947 93.683 65.0213 93.843 65.064ZM97.1163 73H95.1643V65.096H96.9723L97.1323 66.12C97.3776 65.7253 97.7243 65.416 98.1723 65.192C98.6309 64.968 99.1269 64.856 99.6603 64.856C100.652 64.856 101.399 65.1493 101.9 65.736C102.412 66.3227 102.668 67.1227 102.668 68.136V73H100.716V68.6C100.716 67.9387 100.567 67.448 100.268 67.128C99.9696 66.7973 99.5643 66.632 99.0523 66.632C98.4443 66.632 97.9696 66.824 97.6283 67.208C97.2869 67.592 97.1163 68.104 97.1163 68.744V73ZM105.598 65.096L108.174 72.392L107.118 74.392L103.534 65.096H105.598ZM103.742 76.664V75.048H104.91C105.166 75.048 105.39 75.016 105.582 74.952C105.774 74.8987 105.945 74.792 106.094 74.632C106.254 74.472 106.387 74.2373 106.494 73.928L109.774 65.096H111.79L107.918 74.76C107.63 75.4853 107.267 76.0133 106.83 76.344C106.393 76.6747 105.849 76.84 105.198 76.84C104.921 76.84 104.659 76.824 104.414 76.792C104.179 76.7707 103.955 76.728 103.742 76.664ZM114.876 73.208C114.044 73.208 113.382 72.984 112.892 72.536C112.412 72.0773 112.172 71.48 112.172 70.744C112.172 70.0187 112.422 69.4427 112.924 69.016C113.436 68.5787 114.161 68.3227 115.1 68.248L117.468 68.056V67.88C117.468 67.5173 117.398 67.2293 117.26 67.016C117.132 66.792 116.945 66.632 116.7 66.536C116.454 66.4293 116.166 66.376 115.836 66.376C115.26 66.376 114.817 66.4933 114.508 66.728C114.198 66.952 114.044 67.272 114.044 67.688H112.38C112.38 67.112 112.524 66.616 112.812 66.2C113.11 65.7733 113.526 65.4427 114.06 65.208C114.604 64.9733 115.228 64.856 115.932 64.856C116.646 64.856 117.26 64.984 117.772 65.24C118.284 65.4853 118.678 65.8587 118.956 66.36C119.233 66.8507 119.372 67.464 119.372 68.2V73H117.66L117.516 71.832C117.345 72.2373 117.014 72.568 116.524 72.824C116.044 73.08 115.494 73.208 114.876 73.208ZM115.5 71.736C116.108 71.736 116.588 71.5653 116.94 71.224C117.302 70.8827 117.484 70.408 117.484 69.8V69.384L115.836 69.512C115.228 69.5653 114.796 69.6933 114.54 69.896C114.284 70.088 114.156 70.344 114.156 70.664C114.156 71.016 114.273 71.2827 114.508 71.464C114.742 71.6453 115.073 71.736 115.5 71.736Z" fill="#FBFBFB"/>
</g>
<defs>
<radialGradient id="paint0_radial_30_175" cx="0" cy="0" r="1" gradientUnits="userSpaceOnUse" gradientTransform="translate(307.981 40.641) rotate(44.6554) scale(82.2368 83.1472)">
<stop stop-color="white"/>
<stop offset="1" stop-color="#1E1E1E" stop-opacity="0"/>
<stop offset="1" stop-color="#0E0E35" stop-opacity="0"/>
<stop offset="1" stop-color="white" stop-opacity="0"/>
</radialGradient>
<clipPath id="clip0_30_175">
<rect width="334" height="118" rx="30" fill="white"/>
</clipPath>
</defs>
</svg>
