<svg width="334" height="118" viewBox="0 0 334 118" fill="none" xmlns="http://www.w3.org/2000/svg">
<g clip-path="url(#clip0_30_175)">
<rect width="334" height="118" rx="30" fill="#1C1C1C"/>
<path fill-rule="evenodd" clip-rule="evenodd" d="M334.516 -61.6635C327.755 -54.9191 319.36 -45.6737 316.702 -35.1802C315.871 -31.901 315.6 -28.4986 316.113 -25.0129C315.553 -22.5455 315.316 -20.0106 315.496 -17.4251C315.429 -17.1865 315.365 -16.9472 315.304 -16.7073C314.832 -14.8432 314.541 -12.9393 314.472 -11.0028C314.153 -10.0971 313.873 -9.18081 313.639 -8.25481C313.569 -7.97766 313.502 -7.69964 313.44 -7.42076C307.277 -0.994805 300.58 7.21779 298.258 16.3824C296.927 21.6383 297.033 27.211 299.503 32.9354C301.972 38.6571 306.794 44.5081 314.854 50.338C333.631 63.9195 351.102 64.6009 364.506 65.1236C365.751 65.1721 366.96 65.2193 368.133 65.2753C375.053 65.606 380.594 66.2445 384.45 69.1875C388.286 72.115 390.528 77.3906 390.641 87.1987L391.23 87.2126C391.117 77.3553 388.866 71.8574 384.812 68.763C380.778 65.684 375.033 65.052 368.142 64.7227C366.967 64.6666 365.757 64.6193 364.513 64.5706C351.115 64.0468 333.821 63.3705 315.202 49.904C307.206 44.1198 302.466 38.3467 300.048 32.7435C297.631 27.1429 297.524 21.69 298.831 16.5287C301.038 7.81849 307.27 -0.0502673 313.223 -6.34749L313.217 -6.31736C313.066 -5.98484 312.919 -5.65068 312.777 -5.31491C308.671 -0.207536 305.04 5.61082 303.454 11.8738C302.122 17.1297 302.228 22.7024 304.699 28.4267C307.168 34.1484 311.989 39.9994 320.049 45.8293C338.827 59.4109 356.298 60.0922 369.701 60.615C370.946 60.6635 372.156 60.7107 373.328 60.7667C380.248 61.0973 385.79 61.7358 389.646 64.6788C393.481 67.6064 395.724 72.8819 395.837 82.6901L396.426 82.704C396.312 72.8467 394.061 67.3488 390.007 64.2544C385.973 61.1754 380.229 60.5433 373.337 60.2141C372.163 60.158 370.953 60.1106 369.709 60.062C356.311 59.5381 339.016 58.8619 320.398 45.3954C312.401 39.6112 307.661 33.8381 305.243 28.2349C302.826 22.6343 302.719 17.1814 304.027 12.0201C305.326 6.8944 308.018 2.06012 311.227 -2.33401C309.732 0.396816 308.527 3.25478 307.778 6.21189C306.447 11.4678 306.553 17.0405 309.023 22.7648C311.492 28.4865 316.314 34.3375 324.374 40.1674C343.151 53.749 360.622 54.4303 374.026 54.9531L374.027 54.9531L374.027 54.9531L374.032 54.9533L374.035 54.9534C375.277 55.0019 376.483 55.0489 377.653 55.1048C384.573 55.4354 390.114 56.0739 393.97 59.0169C397.806 61.9445 400.048 67.22 400.161 77.0282L400.75 77.0421C400.637 67.1848 398.386 61.6869 394.332 58.5925C390.298 55.5135 384.553 54.8814 377.662 54.5522C376.487 54.4961 375.277 54.4487 374.033 54.4001C360.635 53.8762 343.341 53.2 324.723 39.7335C316.726 33.9493 311.986 28.1762 309.568 22.573C307.151 16.9724 307.044 11.5195 308.351 6.3582C309.027 3.69017 310.081 1.1011 311.389 -1.38804C311.31 -1.10971 311.234 -0.830471 311.163 -0.550343C309.832 4.70553 309.938 10.2783 312.408 16.0026C314.878 21.7243 319.699 27.5753 327.759 33.4052C346.536 46.9868 364.007 47.6681 377.411 48.1908L377.413 48.1909C378.657 48.2394 379.866 48.2866 381.038 48.3426C387.958 48.6732 393.5 49.3117 397.356 52.2547C401.191 55.1823 403.434 60.4578 403.547 70.2659L404.136 70.2799C404.022 60.4225 401.771 54.9247 397.717 51.8302C393.683 48.7513 387.939 48.1192 381.047 47.7899C379.872 47.7338 378.662 47.6865 377.419 47.6379C364.021 47.114 346.726 46.4378 328.108 32.9713C320.111 27.1871 315.371 21.414 312.953 15.8107C310.536 10.2102 310.429 4.75723 311.737 -0.404034C312.049 -1.63723 312.442 -2.85355 312.904 -4.05095C312.526 -0.0611734 313.062 4.07727 314.884 8.29815C317.353 14.0198 322.174 19.8708 330.234 25.7007C349.012 39.2823 366.483 39.9636 379.887 40.4864C381.131 40.5349 382.341 40.5821 383.513 40.6381C390.434 40.9687 395.975 41.6072 399.831 44.5503C403.666 47.4778 405.909 52.7533 406.022 62.5615L406.611 62.5754C406.497 52.7181 404.246 47.2202 400.192 44.1258C396.158 41.0468 390.414 40.4147 383.522 40.0855C382.348 40.0294 381.138 39.982 379.894 39.9334C366.496 39.4096 349.201 38.7333 330.583 25.2668C322.586 19.4826 317.847 13.7095 315.428 8.10627C313.458 3.54022 313.023 -0.927705 313.638 -5.21945C313.889 -5.60671 314.144 -5.99103 314.405 -6.37233C314.5 -6.48578 314.596 -6.59888 314.691 -6.71159C314.993 -4.55483 315.595 -2.36592 316.549 -0.154374C319.019 5.56731 323.84 11.4183 331.9 17.2482C350.677 30.8298 368.148 31.5111 381.552 32.0339C382.797 32.0824 384.007 32.1296 385.179 32.1856C392.099 32.5162 397.641 33.1547 401.497 36.0977C405.332 39.0253 407.575 44.3008 407.688 54.109L408.277 54.1229C408.163 44.2656 405.912 38.7677 401.858 35.6733C397.824 32.5943 392.08 31.9622 385.188 31.633C384.013 31.5768 382.803 31.5295 381.56 31.4809C368.162 30.957 350.867 30.2808 332.249 16.8143C324.252 11.0301 319.512 5.25697 317.094 -0.346245C316.079 -2.69739 315.472 -5.02251 315.205 -7.31096C315.906 -8.12082 316.613 -8.91048 317.32 -9.67874C317.388 -9.51162 317.458 -9.34437 317.531 -9.17699C320 -3.45531 324.821 2.39571 332.881 8.22558C351.658 21.8072 369.13 22.4885 382.533 23.0112L382.536 23.0113L382.539 23.0114L382.544 23.0116L382.549 23.0118C383.789 23.0602 384.993 23.1072 386.16 23.163C393.08 23.4936 398.622 24.1321 402.478 27.0751C406.313 30.0027 408.556 35.2782 408.669 45.0864L409.258 45.1003C409.144 35.2429 406.893 29.7451 402.839 26.6506C398.805 23.5717 393.061 22.9396 386.169 22.6103C384.995 22.5542 383.784 22.5069 382.541 22.4583C369.143 21.9344 351.848 21.2582 333.23 7.79167C325.233 2.00747 320.493 -3.76565 318.075 -9.36887C317.963 -9.62873 317.856 -9.88828 317.754 -10.1475C318.804 -11.2761 319.85 -12.3569 320.87 -13.3859C323.641 -9.35581 327.684 -5.2851 333.298 -1.22464C352.075 12.357 369.546 13.0383 382.95 13.561C384.194 13.6096 385.404 13.6567 386.576 13.7127C393.497 14.0434 399.038 14.6819 402.894 17.6249C406.729 20.5524 408.972 25.828 409.085 35.6361L409.674 35.65C409.56 25.7927 407.309 20.2948 403.255 17.2004C399.221 14.1214 393.477 13.4894 386.585 13.1601C385.411 13.104 384.201 13.0567 382.957 13.0081C369.559 12.4842 352.264 11.8079 333.646 -1.65856C328.019 -5.72842 324.005 -9.79279 321.278 -13.7964L321.462 -13.9815L321.704 -14.2225L321.268 -14.6095C321.162 -14.5035 321.055 -14.3968 320.948 -14.2895C320.912 -14.3451 320.875 -14.4008 320.839 -14.4564C322.59 -16.4006 324.356 -18.2161 326.028 -19.8844L325.593 -20.2714C323.961 -18.6435 322.233 -16.8698 320.515 -14.9681C320.295 -15.3212 320.086 -15.6738 319.886 -16.0258C322.924 -19.9898 326.328 -23.5687 329.413 -26.6467L328.978 -27.0336C325.951 -24.0143 322.597 -20.4938 319.577 -16.5844C319.251 -17.1866 318.954 -17.7872 318.683 -18.3859C322.399 -24.5081 327.47 -29.9434 331.889 -34.3511L331.453 -34.7381C327.126 -30.4215 322.129 -25.0804 318.396 -19.0433C318.063 -19.8344 317.776 -20.6225 317.532 -21.4072C321.101 -29.7571 327.868 -37.1312 333.554 -42.8037L333.119 -43.1906C327.585 -37.6707 320.957 -30.4754 317.276 -22.2917C317.033 -23.1904 316.846 -24.0844 316.711 -24.9732C316.758 -25.1771 316.807 -25.3806 316.859 -25.5836C319.479 -35.9244 327.772 -45.0791 334.536 -51.8263L334.1 -52.2133C327.528 -45.657 319.411 -36.7372 316.521 -26.6049C316.287 -29.4822 316.582 -32.299 317.275 -35.0339C319.895 -45.3746 328.188 -54.5293 334.952 -61.2765L334.516 -61.6635ZM314.565 -7.74686C314.494 -7.60931 314.425 -7.47146 314.356 -7.33332C314.43 -7.43873 314.504 -7.5439 314.579 -7.64881L314.569 -7.75086L314.565 -7.74686ZM316.271 -9.92485C316.483 -10.1987 316.697 -10.4707 316.912 -10.7407C316.829 -10.9724 316.75 -11.2039 316.674 -11.435C316.291 -10.8284 315.922 -10.2149 315.567 -9.5946C315.736 -9.76488 315.905 -9.93365 316.073 -10.1009L316.271 -9.92485ZM320.538 -13.8775C319.927 -13.2614 319.304 -12.6257 318.676 -11.9715C319.261 -12.6676 319.852 -13.3497 320.446 -14.0171L320.506 -13.9258L320.538 -13.8775ZM320.118 -14.5269C319.907 -14.8621 319.705 -15.197 319.511 -15.5316C318.664 -14.4072 317.85 -13.2528 317.081 -12.0708C317.162 -11.8048 317.248 -11.5384 317.34 -11.2716C318.25 -12.3925 319.182 -13.4786 320.118 -14.5269ZM314.411 -8.72306L314.337 -8.58501C314.382 -8.75153 314.429 -8.91774 314.477 -9.08364C314.48 -9.0107 314.483 -8.93772 314.487 -8.8647L314.411 -8.72306ZM316.445 -12.1698C315.959 -11.4141 315.491 -10.6469 315.045 -9.86909C315.042 -10.2091 315.046 -10.5482 315.057 -10.8863C315.368 -11.7613 315.716 -12.6266 316.097 -13.4815C316.2 -13.0454 316.316 -12.6081 316.445 -12.1698ZM319.196 -16.0872C318.389 -15.0235 317.608 -13.9319 316.867 -12.8145C316.726 -13.331 316.605 -13.846 316.501 -14.3594C317.054 -15.5232 317.666 -16.6667 318.326 -17.7878C318.592 -17.2221 318.882 -16.6552 319.196 -16.0872ZM318.028 -18.4399C318.001 -18.5023 317.974 -18.5648 317.947 -18.6272C317.665 -19.2809 317.413 -19.9326 317.192 -20.5821C316.768 -19.5202 316.398 -18.4431 316.09 -17.3523C316.139 -16.6851 316.216 -16.0146 316.323 -15.341C316.849 -16.392 317.42 -17.4255 318.028 -18.4399ZM315.889 -14.4449C315.806 -14.8681 315.735 -15.2901 315.676 -15.7109C315.471 -14.7852 315.312 -13.8505 315.205 -12.9075C315.421 -13.4238 315.649 -13.9363 315.889 -14.4449ZM316.911 -21.4545C316.588 -20.689 316.292 -19.9151 316.026 -19.1334C316.027 -20.583 316.158 -22.0157 316.4 -23.4287C316.541 -22.7732 316.711 -22.1151 316.911 -21.4545ZM292.347 19.8258C295.006 9.33223 303.401 0.0868259 310.162 -6.65754L310.597 -6.27056C303.833 0.476598 295.54 9.63133 292.92 19.9721C291.613 25.1333 291.72 30.5863 294.137 36.1868C296.555 41.7901 301.295 47.5632 309.292 53.3474C327.91 66.8139 345.204 67.4901 358.602 68.014C359.846 68.0626 361.056 68.1099 362.231 68.166C369.122 68.4953 374.867 69.1274 378.901 72.2064C382.955 75.3008 385.206 80.7986 385.319 90.656L384.731 90.642C384.617 80.8339 382.375 75.5584 378.539 72.6308C374.684 69.6878 369.142 69.0493 362.222 68.7187C361.049 68.6627 359.84 68.6155 358.595 68.5669C345.191 68.0442 327.72 67.3629 308.943 53.7813C300.883 47.9514 296.061 42.1004 293.592 36.3787C291.122 30.6544 291.016 25.0816 292.347 19.8258ZM303.726 -4.08031C296.965 2.66406 288.57 11.9095 285.912 22.403C284.58 27.6589 284.686 33.2316 287.156 38.9559C289.626 44.6776 294.447 50.5287 302.507 56.3585C321.284 69.9401 338.755 70.6214 352.159 71.1442L352.159 71.1442C353.404 71.1927 354.614 71.2399 355.786 71.2959C362.706 71.6265 368.248 72.265 372.104 75.208C375.939 78.1356 378.182 83.4111 378.295 93.2193L378.884 93.2332C378.77 83.3759 376.519 77.878 372.465 74.7836C368.431 71.7046 362.687 71.0725 355.795 70.7433C354.621 70.6872 353.41 70.6398 352.167 70.5912C338.769 70.0674 321.474 69.3911 302.856 55.9246C294.859 50.1404 290.119 44.3673 287.701 38.7641C285.284 33.1635 285.177 27.7106 286.485 22.5493C289.105 12.2086 297.398 3.05383 304.162 -3.69333L303.726 -4.08031ZM279.127 24.3579C281.786 13.8644 290.181 4.61897 296.942 -2.1254L297.377 -1.73842C290.613 5.00874 282.32 14.1635 279.7 24.5042C278.393 29.6655 278.5 35.1184 280.917 40.719C283.335 46.3222 288.075 52.0953 296.071 57.8795C314.689 71.346 331.984 72.0223 345.382 72.5461C346.626 72.5948 347.836 72.6421 349.01 72.6982C355.902 73.0274 361.647 73.6595 365.681 76.7385C369.735 79.8329 371.986 85.3308 372.099 95.1881L371.51 95.1742C371.397 85.3661 369.155 80.0905 365.319 77.163C361.463 74.2199 355.922 73.5814 349.002 73.2508C347.829 73.1948 346.62 73.1476 345.375 73.0991C331.971 72.5764 314.5 71.895 295.723 58.3134C287.663 52.4836 282.841 46.6325 280.372 40.9109C277.902 35.1865 277.795 29.6138 279.127 24.3579ZM289.952 -0.557702C283.191 6.18667 274.796 15.4321 272.138 25.9256C270.806 31.1815 270.912 36.7542 273.383 42.4786C275.852 48.2002 280.673 54.0513 288.734 59.8811C307.511 73.4627 324.982 74.1441 338.386 74.6668C339.63 74.7153 340.84 74.7625 342.012 74.8185C348.933 75.1491 354.474 75.7876 358.33 78.7307C362.165 81.6582 364.408 86.9337 364.521 96.7419L365.11 96.7558C364.996 86.8985 362.745 81.4006 358.691 78.3062C354.657 75.2272 348.913 74.5951 342.021 74.2659C340.847 74.2098 339.637 74.1625 338.393 74.1138C324.995 73.59 307.7 72.9137 289.082 59.4472C281.085 53.663 276.346 47.8899 273.927 42.2867C271.511 36.6861 271.403 31.2332 272.711 26.0719C275.331 15.7312 283.624 6.57644 290.388 -0.17072L289.952 -0.557702ZM265.051 27.3041C267.71 16.8106 276.105 7.56518 282.866 0.820812L283.301 1.20779C276.538 7.95495 268.244 17.1097 265.625 27.4504C264.317 32.6117 264.424 38.0646 266.841 43.6652C269.259 49.2684 273.999 55.0415 281.996 60.8257C300.614 74.2922 317.909 74.9685 331.307 75.4923C332.55 75.541 333.76 75.5883 334.935 75.6444C341.827 75.9737 347.571 76.6057 351.605 79.6847C355.659 82.7791 357.91 88.277 358.024 98.1343L357.435 98.1204C357.322 88.3123 355.079 83.0367 351.243 80.1092C347.388 77.1662 341.846 76.5276 334.926 76.197C333.754 76.141 332.544 76.0938 331.299 76.0453C317.895 75.5226 300.424 74.8412 281.647 61.2597C273.587 55.4298 268.765 49.5788 266.296 43.8571C263.826 38.1327 263.72 32.56 265.051 27.3041ZM275.764 2.16757C269.003 8.91193 260.608 18.1573 257.95 28.6509C256.618 33.9067 256.724 39.4795 259.195 45.2038C261.664 50.9255 266.485 56.7765 274.545 62.6064C293.323 76.188 310.794 76.8693 324.198 77.3921C325.442 77.4406 326.652 77.4878 327.824 77.5438C334.744 77.8744 340.286 78.5129 344.142 81.4559C347.977 84.3835 350.22 89.659 350.333 99.4672L350.922 99.4811C350.808 89.6238 348.557 84.1259 344.503 81.0315C340.469 77.9525 334.725 77.3204 327.833 76.9911C326.659 76.935 325.449 76.8877 324.205 76.8391C310.807 76.3152 293.512 75.639 274.894 62.1725C266.897 56.3883 262.158 50.6152 259.739 45.0119C257.323 39.4114 257.215 33.9584 258.523 28.7972C261.143 18.4564 269.436 9.3017 276.2 2.55455L275.764 2.16757ZM250.891 30.084C253.549 19.5904 261.944 10.345 268.705 3.60068L269.141 3.98766C262.377 10.7348 254.084 19.8896 251.464 30.2303C250.156 35.3916 250.264 40.8445 252.68 46.4451C255.099 52.0483 259.838 57.8214 267.835 63.6056C286.453 77.0721 303.748 77.7483 317.146 78.2722C318.39 78.3208 319.6 78.3682 320.774 78.4243C327.666 78.7535 333.41 79.3856 337.444 82.4646C341.498 85.559 343.749 91.0569 343.863 100.914L343.274 100.9C343.161 91.0921 340.918 85.8166 337.083 82.889C333.227 79.946 327.686 79.3075 320.765 78.9769C319.593 78.9209 318.383 78.8737 317.139 78.8252C303.735 78.3024 286.264 77.6211 267.487 64.0395C259.426 58.2096 254.605 52.3586 252.136 46.6369C249.665 40.9126 249.559 35.3399 250.891 30.084ZM261.736 5.20689C254.975 11.9513 246.58 21.1967 243.921 31.6902C242.59 36.9461 242.696 42.5188 245.166 48.2431C247.636 53.9648 252.457 59.8158 260.517 65.6457C279.294 79.2273 296.765 79.9086 310.169 80.4314L310.169 80.4314C311.414 80.4799 312.624 80.5271 313.796 80.5831C320.716 80.9137 326.258 81.5522 330.114 84.4953C333.949 87.4228 336.192 92.6983 336.305 102.506L336.894 102.52C336.78 92.6631 334.529 87.1652 330.475 84.0708C326.441 80.9918 320.697 80.3597 313.805 80.0305C312.63 79.9744 311.42 79.927 310.177 79.8784C296.779 79.3546 279.484 78.6783 260.866 65.2118C252.869 59.4276 248.129 53.6545 245.711 48.0513C243.294 42.4507 243.187 36.9978 244.495 31.8365C247.115 21.4958 255.408 12.341 262.171 5.59387L261.736 5.20689ZM237.075 33.5295C239.734 23.036 248.129 13.7906 254.89 7.04624L255.325 7.43322C248.562 14.1804 240.268 23.3351 237.649 33.6759C236.341 38.8371 236.448 44.2901 238.865 49.8906C241.283 55.4938 246.023 61.267 254.02 67.0512C272.638 80.5177 289.933 81.1939 303.33 81.7178C304.574 81.7664 305.784 81.8137 306.959 81.8698C313.85 82.1991 319.595 82.8312 323.629 85.9101C327.683 89.0046 329.934 94.5024 330.048 104.36L329.459 104.346C329.346 94.5377 327.103 89.2622 323.267 86.3346C319.412 83.3916 313.87 82.7531 306.95 82.4225C305.778 82.3664 304.568 82.3193 303.323 82.2707L303.323 82.2707C289.919 81.748 272.448 81.0667 253.671 67.4851C245.611 61.6552 240.789 55.8042 238.32 50.0825C235.85 44.3582 235.744 38.7854 237.075 33.5295ZM248.191 9.15866C241.43 15.903 233.035 25.1484 230.377 35.642C229.045 40.8978 229.151 46.4706 231.622 52.1949C234.091 57.9166 238.912 63.7676 246.972 69.5975C265.749 83.1791 283.221 83.8604 296.624 84.3832L296.624 84.3831L296.624 84.3831C297.869 84.4317 299.079 84.4789 300.251 84.5349C307.171 84.8655 312.713 85.504 316.569 88.447C320.404 91.3746 322.647 96.6501 322.76 106.458L323.349 106.472C323.235 96.6148 320.984 91.117 316.93 88.0226C312.896 84.9436 307.152 84.3115 300.26 83.9822C299.086 83.9261 297.875 83.8788 296.632 83.8302C283.234 83.3063 265.939 82.6301 247.321 69.1636C239.324 63.3794 234.584 57.6063 232.166 52.003C229.749 46.4025 229.642 40.9495 230.95 35.7883C233.57 25.4475 241.863 16.2928 248.627 9.54564L248.191 9.15866Z" fill="url(#paint0_radial_30_175)" fill-opacity="0.58"/>
<path d="M20.82 25V19.41L24.52 25H25.5V17.77H24.52V23.36L20.82 17.77H19.84V25H20.82ZM29.1338 25.12C30.3438 25.12 31.1638 24.53 31.4038 23.48H30.5238C30.3638 24.04 29.8838 24.34 29.1538 24.34C28.2238 24.34 27.6838 23.77 27.6138 22.74L31.3937 22.73V22.38C31.3937 20.93 30.4838 19.97 29.0938 19.97C27.6738 19.97 26.7038 21.03 26.7038 22.56C26.7038 24.08 27.6938 25.12 29.1338 25.12ZM29.0938 20.76C29.9238 20.76 30.4538 21.3 30.4538 22.11H27.6338C27.7538 21.25 28.2738 20.76 29.0938 20.76ZM33.3277 25H34.2577L35.1077 22.39C35.2877 21.8 35.3777 21.48 35.4277 21.24C35.4777 21.51 35.5777 21.89 35.7377 22.38L36.5877 25H37.4777L39.1477 20.11H38.1677L37.3477 22.65C37.2077 23.08 37.1177 23.42 37.0377 23.81C36.9577 23.46 36.7977 22.89 36.7177 22.65L35.9077 20.11H34.9477L34.1277 22.65C34.0177 22.97 33.8877 23.38 33.8077 23.81C33.7177 23.38 33.6177 23.01 33.5077 22.65L32.6977 20.11H31.7277L33.3277 25ZM43.1478 25L43.7878 23.2H46.8278L47.4778 25H48.5078L45.8578 17.77H44.7678L42.1278 25H43.1478ZM45.1878 19.33C45.2378 19.18 45.2878 19.01 45.3078 18.91C45.3278 19.02 45.3778 19.19 45.4278 19.33L46.5378 22.35H44.0878L45.1878 19.33ZM50.2689 25V17.64H49.3289V25H50.2689ZM52.5027 25L52.5727 24.11C52.8927 24.78 53.5427 25.12 54.3127 25.12C55.7327 25.12 56.6127 24.06 56.6127 22.58C56.6127 21.07 55.7727 19.97 54.3727 19.97C53.5727 19.97 52.9127 20.31 52.5927 20.95V17.64H51.6527V25H52.5027ZM52.6027 22.54C52.6027 21.54 53.1827 20.82 54.1427 20.82C55.1027 20.82 55.6727 21.54 55.6727 22.54C55.6727 23.55 55.1027 24.27 54.1427 24.27C53.1827 24.27 52.6027 23.56 52.6027 22.54ZM60.9116 20.11V22.69C60.9116 23.74 60.4416 24.29 59.5816 24.29C58.8616 24.29 58.4116 23.89 58.4116 22.84V20.11H57.4716V23.15C57.4716 24.35 58.1116 25.12 59.2516 25.12C59.9716 25.12 60.6216 24.77 60.9016 24.26L61.0016 25H61.8416V20.11H60.9116ZM64.1454 25V22.1C64.1454 21.32 64.6154 20.83 65.3254 20.83C65.9854 20.83 66.4054 21.25 66.4054 22.02V25H67.3354V22.1C67.3354 21.32 67.8054 20.82 68.5154 20.82C69.1754 20.82 69.6054 21.26 69.6054 22.03V25H70.5254V21.8C70.5254 20.67 69.8454 19.97 68.7254 19.97C67.9654 19.97 67.3754 20.35 67.1454 20.96C66.8954 20.35 66.3554 19.97 65.5954 19.97C64.9054 19.97 64.3854 20.29 64.1354 20.75L64.0454 20.11H63.2054V25H64.1454Z" fill="#FBFBFB"/>
<path d="M23.992 87.143C23.0993 87.143 22.3193 86.9437 21.652 86.545C20.9847 86.1377 20.4647 85.5743 20.092 84.855C19.7193 84.127 19.533 83.2777 19.533 82.307C19.533 81.3363 19.7237 80.487 20.105 79.759C20.4863 79.031 21.015 78.4633 21.691 78.056C22.3757 77.6487 23.1643 77.445 24.057 77.445C24.7677 77.445 25.409 77.5793 25.981 77.848C26.553 78.108 27.0297 78.4763 27.411 78.953C27.7923 79.4297 28.0393 79.9887 28.152 80.63H26.787C26.6137 80.0147 26.28 79.5337 25.786 79.187C25.292 78.8403 24.7027 78.667 24.018 78.667C23.3853 78.667 22.8307 78.8187 22.354 79.122C21.886 79.4167 21.522 79.837 21.262 80.383C21.002 80.9203 20.872 81.5573 20.872 82.294C20.872 83.022 21.002 83.659 21.262 84.205C21.522 84.751 21.8903 85.1757 22.367 85.479C22.8437 85.7737 23.394 85.921 24.018 85.921C24.7113 85.921 25.3093 85.752 25.812 85.414C26.3233 85.0673 26.6657 84.6037 26.839 84.023H28.191C28.061 84.647 27.7967 85.193 27.398 85.661C27.008 86.129 26.5183 86.493 25.929 86.753C25.3483 87.013 24.7027 87.143 23.992 87.143ZM29.5451 87V80.643H30.7671V87H29.5451ZM30.1431 79.135C29.9265 79.135 29.7358 79.057 29.5711 78.901C29.4151 78.7363 29.3371 78.5457 29.3371 78.329C29.3371 78.1037 29.4151 77.913 29.5711 77.757C29.7358 77.601 29.9265 77.523 30.1431 77.523C30.3685 77.523 30.5591 77.601 30.7151 77.757C30.8711 77.913 30.9491 78.1037 30.9491 78.329C30.9491 78.5457 30.8711 78.7363 30.7151 78.901C30.5591 79.057 30.3685 79.135 30.1431 79.135ZM32.1382 83.659C32.1382 83.061 32.2596 82.5237 32.5022 82.047C32.7449 81.5617 33.0916 81.176 33.5422 80.89C33.9929 80.604 34.5259 80.461 35.1412 80.461C35.7132 80.461 36.2029 80.5997 36.6102 80.877C37.0176 81.1457 37.3079 81.5227 37.4812 82.008L37.3252 82.177L37.4552 80.643H38.5472V86.74C38.5472 87.4073 38.4172 87.9837 38.1572 88.469C37.8972 88.963 37.5289 89.3443 37.0522 89.613C36.5756 89.8817 36.0122 90.016 35.3622 90.016C34.4956 90.016 33.7849 89.7863 33.2302 89.327C32.6756 88.8677 32.3376 88.235 32.2162 87.429H33.4382C33.5162 87.897 33.7242 88.261 34.0622 88.521C34.4002 88.781 34.8336 88.911 35.3622 88.911C35.9602 88.911 36.4369 88.729 36.7922 88.365C37.1562 88.0097 37.3382 87.5287 37.3382 86.922V85.128L37.4942 85.297C37.3296 85.7737 37.0306 86.1507 36.5972 86.428C36.1639 86.6967 35.6612 86.831 35.0892 86.831C34.4826 86.831 33.9582 86.6923 33.5162 86.415C33.0742 86.129 32.7319 85.7477 32.4892 85.271C32.2552 84.7943 32.1382 84.257 32.1382 83.659ZM33.3602 83.633C33.3602 84.0317 33.4382 84.3913 33.5942 84.712C33.7589 85.0327 33.9842 85.2883 34.2702 85.479C34.5649 85.6697 34.9072 85.765 35.2972 85.765C35.7132 85.765 36.0686 85.674 36.3632 85.492C36.6579 85.31 36.8832 85.0587 37.0392 84.738C37.2039 84.4173 37.2862 84.049 37.2862 83.633C37.2862 83.217 37.2082 82.853 37.0522 82.541C36.8962 82.229 36.6709 81.982 36.3762 81.8C36.0816 81.618 35.7262 81.527 35.3102 81.527C34.9029 81.527 34.5519 81.6223 34.2572 81.813C33.9712 82.0037 33.7502 82.2593 33.5942 82.58C33.4382 82.892 33.3602 83.243 33.3602 83.633ZM42.1698 87.156C41.4938 87.156 40.9608 86.9783 40.5708 86.623C40.1894 86.2677 39.9988 85.804 39.9988 85.232C39.9988 84.6513 40.2068 84.1877 40.6228 83.841C41.0388 83.4857 41.6194 83.2777 42.3648 83.217L44.3668 83.061V82.879C44.3668 82.5237 44.3018 82.242 44.1718 82.034C44.0418 81.8173 43.8641 81.6657 43.6388 81.579C43.4134 81.4837 43.1578 81.436 42.8718 81.436C42.3604 81.436 41.9618 81.5443 41.6758 81.761C41.3984 81.969 41.2598 82.268 41.2598 82.658H40.1938C40.1938 82.216 40.3064 81.8303 40.5318 81.501C40.7571 81.1717 41.0734 80.916 41.4808 80.734C41.8968 80.552 42.3778 80.461 42.9238 80.461C43.4524 80.461 43.9118 80.5563 44.3018 80.747C44.7004 80.929 45.0081 81.2107 45.2248 81.592C45.4501 81.9647 45.5628 82.437 45.5628 83.009V87H44.5228L44.3928 85.973C44.2281 86.337 43.9421 86.6273 43.5348 86.844C43.1361 87.052 42.6811 87.156 42.1698 87.156ZM42.5208 86.207C43.1014 86.207 43.5564 86.0337 43.8858 85.687C44.2151 85.3317 44.3798 84.855 44.3798 84.257V83.919L42.7548 84.049C42.2174 84.101 41.8274 84.2267 41.5848 84.426C41.3508 84.6253 41.2338 84.881 41.2338 85.193C41.2338 85.531 41.3464 85.7867 41.5718 85.96C41.8058 86.1247 42.1221 86.207 42.5208 86.207ZM50.8951 80.591V81.709H50.3491C49.7684 81.709 49.3091 81.878 48.9711 82.216C48.6418 82.5453 48.4771 83.0177 48.4771 83.633V87H47.2551V80.656H48.3991L48.5031 81.93H48.3861C48.4728 81.514 48.6808 81.176 49.0101 80.916C49.3394 80.6473 49.7511 80.513 50.2451 80.513C50.3578 80.513 50.4618 80.5217 50.5571 80.539C50.6611 80.5477 50.7738 80.565 50.8951 80.591ZM54.5557 87.156C53.9404 87.156 53.3944 87.0173 52.9177 86.74C52.441 86.454 52.0684 86.064 51.7997 85.57C51.531 85.0673 51.3967 84.4867 51.3967 83.828C51.3967 83.1607 51.5267 82.5757 51.7867 82.073C52.0554 81.5703 52.4194 81.176 52.8787 80.89C53.3467 80.604 53.8884 80.461 54.5037 80.461C55.1104 80.461 55.6347 80.591 56.0767 80.851C56.5274 81.111 56.874 81.475 57.1167 81.943C57.368 82.411 57.4937 82.9613 57.4937 83.594V84.049L52.0467 84.062L52.0727 83.243H56.2717C56.2717 82.7143 56.1114 82.2897 55.7907 81.969C55.47 81.6483 55.041 81.488 54.5037 81.488C54.0964 81.488 53.7454 81.579 53.4507 81.761C53.1647 81.9343 52.9437 82.1943 52.7877 82.541C52.6404 82.879 52.5667 83.2863 52.5667 83.763C52.5667 84.5257 52.74 85.115 53.0867 85.531C53.4334 85.9383 53.9317 86.142 54.5817 86.142C55.0584 86.142 55.4484 86.0467 55.7517 85.856C56.055 85.6653 56.2587 85.388 56.3627 85.024H57.5067C57.3507 85.7 57.017 86.2243 56.5057 86.597C55.9944 86.9697 55.3444 87.156 54.5557 87.156ZM58.1191 80.643H61.8371V81.67H58.1191V80.643ZM60.5891 87H59.3671V78.654H60.5891V87ZM62.3721 80.643H66.0901V81.67H62.3721V80.643ZM64.8421 87H63.6201V78.654H64.8421V87ZM69.8663 87.156C69.2509 87.156 68.7049 87.0173 68.2283 86.74C67.7516 86.454 67.3789 86.064 67.1103 85.57C66.8416 85.0673 66.7073 84.4867 66.7073 83.828C66.7073 83.1607 66.8373 82.5757 67.0973 82.073C67.3659 81.5703 67.7299 81.176 68.1893 80.89C68.6573 80.604 69.1989 80.461 69.8143 80.461C70.4209 80.461 70.9453 80.591 71.3873 80.851C71.8379 81.111 72.1846 81.475 72.4273 81.943C72.6786 82.411 72.8043 82.9613 72.8043 83.594V84.049L67.3573 84.062L67.3833 83.243H71.5823C71.5823 82.7143 71.4219 82.2897 71.1013 81.969C70.7806 81.6483 70.3516 81.488 69.8143 81.488C69.4069 81.488 69.0559 81.579 68.7613 81.761C68.4753 81.9343 68.2543 82.1943 68.0983 82.541C67.9509 82.879 67.8773 83.2863 67.8773 83.763C67.8773 84.5257 68.0506 85.115 68.3973 85.531C68.7439 85.9383 69.2423 86.142 69.8923 86.142C70.3689 86.142 70.7589 86.0467 71.0623 85.856C71.3656 85.6653 71.5693 85.388 71.6733 85.024H72.8173C72.6613 85.7 72.3276 86.2243 71.8163 86.597C71.3049 86.9697 70.6549 87.156 69.8663 87.156ZM73.6492 85.154H74.8192C74.8192 85.4747 74.9362 85.7303 75.1702 85.921C75.4042 86.103 75.7205 86.194 76.1192 86.194C76.5525 86.194 76.8862 86.1117 77.1202 85.947C77.3542 85.7737 77.4712 85.544 77.4712 85.258C77.4712 85.05 77.4062 84.8767 77.2762 84.738C77.1548 84.5993 76.9295 84.4867 76.6002 84.4L75.4822 84.14C74.9188 84.0013 74.4985 83.789 74.2212 83.503C73.9525 83.217 73.8182 82.84 73.8182 82.372C73.8182 81.982 73.9178 81.644 74.1172 81.358C74.3252 81.072 74.6068 80.851 74.9622 80.695C75.3262 80.539 75.7422 80.461 76.2102 80.461C76.6782 80.461 77.0812 80.5433 77.4192 80.708C77.7658 80.8727 78.0345 81.1023 78.2252 81.397C78.4245 81.6917 78.5285 82.0427 78.5372 82.45H77.3672C77.3585 82.1207 77.2502 81.865 77.0422 81.683C76.8342 81.501 76.5438 81.41 76.1712 81.41C75.7898 81.41 75.4952 81.4923 75.2872 81.657C75.0792 81.8217 74.9752 82.047 74.9752 82.333C74.9752 82.7577 75.2872 83.048 75.9112 83.204L77.0292 83.477C77.5665 83.5983 77.9695 83.7977 78.2382 84.075C78.5068 84.3437 78.6412 84.712 78.6412 85.18C78.6412 85.5787 78.5328 85.9297 78.3162 86.233C78.0995 86.5277 77.8005 86.7573 77.4192 86.922C77.0465 87.078 76.6045 87.156 76.0932 87.156C75.3478 87.156 74.7542 86.974 74.3122 86.61C73.8702 86.246 73.6492 85.7607 73.6492 85.154Z" fill="#FBFBFB"/>
<path d="M20.14 101H19.12L21.76 93.77H22.85L25.5 101H24.47L23.82 99.2H20.78L20.14 101ZM22.18 95.33L21.08 98.35H23.53L22.42 95.33C22.4 95.2567 22.3767 95.1833 22.35 95.11C22.3233 95.03 22.3067 94.9633 22.3 94.91C22.2867 94.9633 22.27 95.03 22.25 95.11C22.23 95.1833 22.2067 95.2567 22.18 95.33ZM25.6932 96.11H28.7632V96.9H25.6932V96.11ZM28.4932 93.68V94.49C28.4332 94.49 28.3665 94.49 28.2932 94.49C28.2265 94.49 28.1532 94.49 28.0732 94.49C27.7865 94.49 27.5932 94.5633 27.4932 94.71C27.3999 94.8567 27.3532 95.0633 27.3532 95.33V101H26.4132V95.33C26.4132 94.93 26.4799 94.6067 26.6132 94.36C26.7465 94.1067 26.9265 93.9233 27.1532 93.81C27.3799 93.6967 27.6332 93.64 27.9132 93.64C28.0065 93.64 28.1032 93.6433 28.2032 93.65C28.3032 93.6567 28.3999 93.6667 28.4932 93.68ZM28.6432 96.11H31.5432V96.9H28.6432V96.11ZM30.5832 101H29.6432V94.58H30.5832V101ZM34.4463 101.12C33.9729 101.12 33.5529 101.013 33.1863 100.8C32.8196 100.58 32.5329 100.28 32.3263 99.9C32.1196 99.5133 32.0163 99.0667 32.0163 98.56C32.0163 98.0467 32.1163 97.5967 32.3162 97.21C32.5229 96.8233 32.8029 96.52 33.1563 96.3C33.5163 96.08 33.9329 95.97 34.4063 95.97C34.8729 95.97 35.2763 96.07 35.6163 96.27C35.9629 96.47 36.2296 96.75 36.4163 97.11C36.6096 97.47 36.7062 97.8933 36.7062 98.38V98.73L32.5163 98.74L32.5363 98.11H35.7663C35.7663 97.7033 35.6429 97.3767 35.3963 97.13C35.1496 96.8833 34.8196 96.76 34.4063 96.76C34.0929 96.76 33.8229 96.83 33.5963 96.97C33.3763 97.1033 33.2063 97.3033 33.0863 97.57C32.9729 97.83 32.9163 98.1433 32.9163 98.51C32.9163 99.0967 33.0496 99.55 33.3163 99.87C33.5829 100.183 33.9663 100.34 34.4663 100.34C34.8329 100.34 35.1329 100.267 35.3663 100.12C35.5996 99.9733 35.7563 99.76 35.8363 99.48H36.7163C36.5963 100 36.3396 100.403 35.9463 100.69C35.5529 100.977 35.0529 101.12 34.4463 101.12ZM40.5562 96.07V96.93H40.1362C39.6895 96.93 39.3362 97.06 39.0762 97.32C38.8228 97.5733 38.6962 97.9367 38.6962 98.41V101H37.7562V96.12H38.6362L38.7162 97.1H38.6262C38.6928 96.78 38.8528 96.52 39.1062 96.32C39.3595 96.1133 39.6762 96.01 40.0562 96.01C40.1428 96.01 40.2228 96.0167 40.2962 96.03C40.3762 96.0367 40.4628 96.05 40.5562 96.07ZM43.9122 95.72C43.9122 95.3067 44.0155 94.9433 44.2222 94.63C44.4289 94.3167 44.7189 94.0733 45.0922 93.9C45.4722 93.7267 45.9089 93.64 46.4022 93.64C46.8622 93.64 47.2622 93.7233 47.6022 93.89C47.9489 94.05 48.2189 94.28 48.4122 94.58C48.6122 94.88 48.7255 95.24 48.7522 95.66H47.7622C47.7355 95.3 47.6022 95.02 47.3622 94.82C47.1222 94.62 46.7989 94.52 46.3922 94.52C45.9389 94.52 45.5755 94.6267 45.3022 94.84C45.0289 95.0467 44.8922 95.33 44.8922 95.69C44.8922 95.9833 44.9755 96.22 45.1422 96.4C45.3089 96.5733 45.5622 96.7 45.9022 96.78L47.0922 97.06C47.6855 97.1933 48.1289 97.4233 48.4222 97.75C48.7222 98.07 48.8722 98.4833 48.8722 98.99C48.8722 99.4233 48.7655 99.8 48.5522 100.12C48.3455 100.44 48.0489 100.687 47.6622 100.86C47.2822 101.033 46.8355 101.12 46.3222 101.12C45.8355 101.12 45.4055 101.04 45.0322 100.88C44.6655 100.713 44.3755 100.48 44.1622 100.18C43.9555 99.8733 43.8389 99.5167 43.8122 99.11H44.8122C44.8189 99.4567 44.9589 99.7333 45.2322 99.94C45.5055 100.14 45.8689 100.24 46.3222 100.24C46.8022 100.24 47.1822 100.133 47.4622 99.92C47.7489 99.7067 47.8922 99.4233 47.8922 99.07C47.8922 98.7833 47.8122 98.55 47.6522 98.37C47.4922 98.19 47.2389 98.06 46.8922 97.98L45.7022 97.71C45.1155 97.5767 44.6689 97.3433 44.3622 97.01C44.0622 96.67 43.9122 96.24 43.9122 95.72ZM52.0537 101.12C51.5803 101.12 51.1603 101.013 50.7937 100.8C50.427 100.58 50.1403 100.28 49.9337 99.9C49.727 99.5133 49.6237 99.0667 49.6237 98.56C49.6237 98.0467 49.7237 97.5967 49.9237 97.21C50.1303 96.8233 50.4103 96.52 50.7637 96.3C51.1237 96.08 51.5403 95.97 52.0137 95.97C52.4803 95.97 52.8837 96.07 53.2237 96.27C53.5703 96.47 53.837 96.75 54.0237 97.11C54.217 97.47 54.3137 97.8933 54.3137 98.38V98.73L50.1237 98.74L50.1437 98.11H53.3737C53.3737 97.7033 53.2503 97.3767 53.0037 97.13C52.757 96.8833 52.427 96.76 52.0137 96.76C51.7003 96.76 51.4303 96.83 51.2037 96.97C50.9837 97.1033 50.8137 97.3033 50.6937 97.57C50.5803 97.83 50.5237 98.1433 50.5237 98.51C50.5237 99.0967 50.657 99.55 50.9237 99.87C51.1903 100.183 51.5737 100.34 52.0737 100.34C52.4403 100.34 52.7403 100.267 52.9737 100.12C53.207 99.9733 53.3637 99.76 53.4437 99.48H54.3237C54.2037 100 53.947 100.403 53.5537 100.69C53.1603 100.977 52.6603 101.12 52.0537 101.12ZM55.6683 101H54.5883L56.2983 98.58L54.5983 96.11H55.6883L56.9283 97.93L58.1383 96.11H59.2083L57.5083 98.58L59.1783 101H58.0883L56.8683 99.21L55.6683 101Z" fill="#FBFBFB"/>
<path d="M28.36 59.288C26.648 59.288 25.16 58.92 23.896 58.184C22.648 57.432 21.672 56.384 20.968 55.04C20.28 53.68 19.936 52.08 19.936 50.24C19.936 48.416 20.288 46.824 20.992 45.464C21.712 44.104 22.72 43.048 24.016 42.296C25.312 41.544 26.808 41.168 28.504 41.168C29.896 41.168 31.144 41.424 32.248 41.936C33.352 42.448 34.264 43.168 34.984 44.096C35.704 45.008 36.16 46.096 36.352 47.36H33.112C32.808 46.336 32.24 45.544 31.408 44.984C30.592 44.408 29.592 44.12 28.408 44.12C27.352 44.12 26.424 44.368 25.624 44.864C24.84 45.36 24.232 46.064 23.8 46.976C23.368 47.888 23.152 48.976 23.152 50.24C23.152 51.456 23.368 52.528 23.8 53.456C24.232 54.368 24.84 55.08 25.624 55.592C26.424 56.088 27.352 56.336 28.408 56.336C29.608 56.336 30.632 56.048 31.48 55.472C32.344 54.896 32.92 54.12 33.208 53.144H36.4C36.176 54.36 35.688 55.432 34.936 56.36C34.2 57.288 33.264 58.008 32.128 58.52C31.008 59.032 29.752 59.288 28.36 59.288ZM46.1629 47.096V49.808H45.0829C44.0109 49.808 43.1709 50.096 42.5629 50.672C41.9549 51.232 41.6509 52.088 41.6509 53.24V59H38.7229V47.168H41.4829L41.7229 49.616H41.4349C41.5949 48.832 41.9709 48.192 42.5629 47.696C43.1549 47.2 43.9229 46.952 44.8669 46.952C45.0749 46.952 45.2829 46.96 45.4909 46.976C45.6989 46.992 45.9229 47.032 46.1629 47.096ZM50.2484 47.144L54.1124 58.088L52.5284 61.088L47.1524 47.144H50.2484ZM47.4644 64.496V62.072H49.2164C49.6004 62.072 49.9364 62.024 50.2244 61.928C50.5124 61.848 50.7684 61.688 50.9924 61.448C51.2324 61.208 51.4324 60.856 51.5924 60.392L56.5124 47.144H59.5364L53.7284 61.64C53.2964 62.728 52.7524 63.52 52.0964 64.016C51.4404 64.512 50.6244 64.76 49.6484 64.76C49.2324 64.76 48.8404 64.736 48.4724 64.688C48.1204 64.656 47.7844 64.592 47.4644 64.496Z" fill="#FBFBFB"/>
</g>
<defs>
<radialGradient id="paint0_radial_30_175" cx="0" cy="0" r="1" gradientUnits="userSpaceOnUse" gradientTransform="translate(307.981 40.641) rotate(44.6554) scale(82.2368 83.1472)">
<stop stop-color="white"/>
<stop offset="1" stop-color="#1E1E1E" stop-opacity="0"/>
<stop offset="1" stop-color="#0E0E35" stop-opacity="0"/>
<stop offset="1" stop-color="white" stop-opacity="0"/>
</radialGradient>
<clipPath id="clip0_30_175">
<rect width="334" height="118" rx="30" fill="white"/>
</clipPath>
</defs>
</svg>
